<svg xmlns="http://www.w3.org/2000/svg" xmlns:xlink="http://www.w3.org/1999/xlink" viewBox="0 0 101.64 91.58"><defs><style>.cls-1{fill:#6040ff;}.cls-2{fill:#fff;}.cls-3{fill:#37202c;}.cls-4{fill:#ff8c62;}.cls-5{fill:#ff6a4c;}.cls-6{fill:url(#Degradado_sin_nombre_8);}</style><linearGradient id="Degradado_sin_nombre_8" x1="59.31" y1="38.86" x2="57.77" y2="21.06" gradientUnits="userSpaceOnUse"><stop offset="0" stop-color="#ff8c62"/><stop offset="1" stop-color="#ff6a4c"/></linearGradient></defs><g id="Слой_2" data-name="Слой 2"><g id="Слой_1-2" data-name="Слой 1"><path class="cls-1" d="M95.4,91.58a19.76,19.76,0,0,0-.08-5.41c-1.81-9.12-9.73-9.76-17.48-12.23h0c-.81-.26-1.62-.54-2.42-.86-.34-.13-.68-.26-1-.41s-.65-.28-1-.44-.82-.4-1.22-.62a18.25,18.25,0,0,1-6.42-5.76H41.26a34.46,34.46,0,0,1-5.56,3.44l-.65.33-.39.18c-.83.39-1.74.79-2.73,1.17s-1.77.65-2.75,1l-.94.27a47.18,47.18,0,0,1-5.71,1.26C14.64,74.71,9.15,81.08,6.24,91.58Z"/><path class="cls-2" d="M56.42,89.63c-6.24,0-11.5-3.78-15.23-10.94A41.52,41.52,0,0,1,37.46,68a.9.9,0,0,1,1.77-.31c0,.2,3.74,20.17,17.19,20.17A9.57,9.57,0,0,0,64,84.7c4.71-5.32,3.5-15.64,3.49-15.75a.9.9,0,0,1,1.79-.22c.06.46,1.31,11.25-3.93,17.17A11.33,11.33,0,0,1,56.42,89.63Z"/><path class="cls-1" d="M33,91.58c0-.12,0-.24.07-.36,2.16-13.33-10.56-16.59-10.56-16.59S12.1,73.39,6.22,81.14A75.09,75.09,0,0,0,0,91.58Z"/><path class="cls-1" d="M101.64,91.58a62.19,62.19,0,0,0-4.39-8.26,15.46,15.46,0,0,0-13.88-7.1S70.86,78.65,71.8,91.58Z"/><path class="cls-3" d="M39.05,42.94s-.49,8-3.34,10.65c0,0,4.88,5.46,9.77,3.95C45.48,57.54,42.81,45,39.05,42.94Z"/><path class="cls-3" d="M83.93,22.46a19.21,19.21,0,0,1-.45,2.26h0a25,25,0,0,1-3.13,7l-.64,0-.64,0-2.22-.11S70.55,12.51,61,13.79,46.77,35.45,46.77,35.45L35.16,33.61s-5.7-14.1.73-24.32C41.24.78,51,3.34,51,3.34s10-6.3,19.87-1.6C77.28,4.78,85.33,12.12,83.93,22.46Z"/><path class="cls-4" d="M66.09,61.36v6.27a19.49,19.49,0,0,1-2.22,1.56C53,75.73,41.24,67.63,41.24,67.63V45.89L63.13,59.52Z"/><path class="cls-3" d="M66.09,61.36v5.33c-13.4-2.38-18.23-10.9-18.23-10.9l15.27,3.73Z"/><path class="cls-5" d="M73.93,33.89s3.56-4.21,5.57,0,.46,12.72-5,11.33Z"/><path class="cls-6" d="M77.72,48.64s0,13-13.46,12.93-22.53-10.55-23-11l0,0L41.1,47.8l-.77-14.14-.4-7.56S38.22,12.5,51.15,10c9.44-1.82,18.31-.25,22.78,4.68.14.16.28.32.41.49a11.59,11.59,0,0,1,2.55,6.34L77.3,35.1l.11,3.33Z"/><path class="cls-3" d="M72.77,46.86a.59.59,0,0,1-.55-.39S70.71,42.23,67,41.93c-4.62-.36-7.23,4.2-7.26,4.25a.58.58,0,0,1-1-.57c.12-.21,3-5.24,8.36-4.83,4.51.36,6.19,5.12,6.26,5.32a.56.56,0,0,1-.35.73Z"/><path class="cls-3" d="M78.87,31.67l-4.15-.41s.88-10-4.59-15.13c-3.51-3.28-10.88-2.35-15.7-1.26l-.77.18c-1.21.3-2.21.59-2.88.79l-.67.21-.25.08s2.6,5.44-1.49,9.53c-3.47,3.46,1.07,12,1.07,12H43.29c-3.09-1.56-4.24-8-4.24-8s-3.19-8.8.8-15.91c2.17-3.87,9-6.39,16.08-7.2l1.26-.12c5.57-.48,11.2.11,14.83,1.92,2.89,1.43,4.61,4.55,5.62,8.05a29,29,0,0,1,.68,2.93A52.13,52.13,0,0,1,78.87,31.67Z"/><path class="cls-3" d="M53.42,21.45h0a3,3,0,0,0,1.71,3.91A18,18,0,0,1,58,26.82a2.79,2.79,0,0,0,4-.95h0S57.93,21,53.42,21.45Z"/><path class="cls-3" d="M76.07,21.68h0a3.06,3.06,0,0,1-1.95,3.8,17.85,17.85,0,0,0-2.94,1.28,2.81,2.81,0,0,1-3.9-1.18h0S71.59,21,76.07,21.68Z"/><ellipse class="cls-5" cx="55.38" cy="36.77" rx="4.34" ry="1.71"/><path class="cls-5" d="M77.41,38.43c-.34,0-.69,0-1,0C74,38.48,72,37.71,72,36.77s2-1.71,4.34-1.71c.33,0,.64,0,1,0Z"/><path class="cls-3" d="M59.48,31.57c0,1.3-.59,2.35-1.31,2.35s-1.32-1.05-1.32-2.35.59-2.34,1.32-2.34S59.48,30.28,59.48,31.57Z"/><path class="cls-3" d="M72.5,31.57c0,1.3-.58,2.35-1.31,2.35s-1.31-1.05-1.31-2.35.59-2.34,1.31-2.34S72.5,30.28,72.5,31.57Z"/><path class="cls-3" d="M45.48,45.28c-.06.14-1.77,4.1-4.22,5.26l0,0L41.1,47.8A9.27,9.27,0,0,0,45.48,45.28Z"/><path class="cls-4" d="M43.1,36.28s-5.18-7-9-1.49C31,39.29,36.91,51,43.1,47Z"/><path class="cls-3" d="M42.39,44.92a.53.53,0,0,1-.52-.48,8.94,8.94,0,0,0-5.18-7.18.53.53,0,0,1,.39-1,10,10,0,0,1,5.85,8.06.54.54,0,0,1-.48.59Z"/><path class="cls-3" d="M37.42,41.69a.55.55,0,0,1-.42-.2.54.54,0,0,1,.08-.75c.21-.17,2.13-1.68,3.73-1.27a.53.53,0,1,1-.27,1c-.92-.23-2.32.69-2.79,1.07A.5.5,0,0,1,37.42,41.69Z"/><path class="cls-3" d="M65.81,38.1a.54.54,0,0,1,0-1.07A3.65,3.65,0,0,0,69,35.55c-2.12-4.39-4.24-8.8-4.26-8.85A.53.53,0,0,1,65,26a.52.52,0,0,1,.71.25c0,.05,2.22,4.63,4.39,9.1a.53.53,0,0,1,0,.46A4.56,4.56,0,0,1,65.81,38.1Z"/></g></g></svg>