<svg xmlns="http://www.w3.org/2000/svg" viewBox="0 0 101.64 91.58"><defs><style>.cls-1{fill:#6040ff;}.cls-2{fill:#fff;}.cls-3{fill:#37202c;}.cls-4{fill:#ff8c62;}.cls-5{fill:#ff6a4c;}</style></defs><g id="Слой_2" data-name="Слой 2"><g id="Слой_1-2" data-name="Слой 1"><path class="cls-1" d="M95.4,91.58a19.76,19.76,0,0,0-.08-5.41c-1.81-9.12-9.73-9.76-17.48-12.23h0c-.81-.26-1.62-.54-2.42-.86-.34-.13-.68-.26-1-.41s-.65-.28-1-.44-.82-.4-1.22-.62a18.25,18.25,0,0,1-6.42-5.76H41.26a34.46,34.46,0,0,1-5.56,3.44l-.65.33-.39.18c-.83.39-1.74.79-2.73,1.17s-1.77.65-2.75,1l-.94.27a47.18,47.18,0,0,1-5.71,1.26C14.64,74.71,9.15,81.08,6.24,91.58Z"/><path class="cls-2" d="M56.42,89.63c-6.24,0-11.5-3.78-15.23-10.94A41.52,41.52,0,0,1,37.46,68a.9.9,0,0,1,1.77-.31c0,.2,3.74,20.17,17.19,20.17A9.57,9.57,0,0,0,64,84.7c4.71-5.32,3.5-15.64,3.49-15.75a.9.9,0,0,1,1.79-.22c.06.46,1.31,11.25-3.93,17.17A11.33,11.33,0,0,1,56.42,89.63Z"/><path class="cls-1" d="M33,91.58c0-.12,0-.24.07-.36,2.16-13.33-10.56-16.59-10.56-16.59S12.1,73.39,6.22,81.14A75.09,75.09,0,0,0,0,91.58Z"/><path class="cls-1" d="M101.64,91.58a62.19,62.19,0,0,0-4.39-8.26,15.46,15.46,0,0,0-13.88-7.1S70.86,78.65,71.8,91.58Z"/><path class="cls-3" d="M38.83,42.94s-.5,8-3.34,10.65c0,0,4.88,5.46,9.77,3.95C45.26,57.54,42.59,45,38.83,42.94Z"/><path class="cls-3" d="M83.71,22.46a19.21,19.21,0,0,1-.45,2.26h0a25.09,25.09,0,0,1-3.14,7l-.64,0-.63,0-2.22-.11s-6.3-19.06-15.9-17.78S46.55,35.45,46.55,35.45L34.94,33.61s-5.7-14.1.73-24.32C41,.78,50.82,3.34,50.82,3.34s10-6.3,19.87-1.6C77.06,4.78,85.11,12.12,83.71,22.46Z"/><path class="cls-4" d="M65.87,61.36v6.27a19.49,19.49,0,0,1-2.22,1.56C52.76,75.73,41,67.63,41,67.63V45.89L62.91,59.52Z"/><path class="cls-3" d="M65.87,61.36v5.33c-13.41-2.38-18.23-10.9-18.23-10.9l15.27,3.73Z"/><path class="cls-5" d="M73.7,33.89s3.56-4.21,5.58,0,.46,12.72-5,11.33Z"/><path class="cls-4" d="M77.5,48.64s0,13-13.46,12.93S41.51,51,41,50.54l0,0-.15-2.72-.76-14.14L39.7,26.1S38,12.5,50.92,10C60.37,8.2,69.23,9.77,73.7,14.7a6.4,6.4,0,0,1,.42.49,11.58,11.58,0,0,1,2.54,6.34l.42,13.57.11,3.33Z"/><path class="cls-3" d="M61.28,33a.58.58,0,0,1-.56-.44c0-.09-.53-2.2-2.25-2.23h0c-1.77,0-2.77,1.94-2.78,2a.57.57,0,0,1-.77.26.58.58,0,0,1-.26-.77c.06-.1,1.32-2.6,3.8-2.6h.08c2.62.06,3.32,3,3.35,3.13a.57.57,0,0,1-.43.69Z"/><path class="cls-2" d="M58.2,40s7.69,3.78,13.83,3.2c0,0-2.13,7.57-9.06,5.13C58.39,46.7,58.2,40,58.2,40Z"/><path class="cls-3" d="M78.65,31.67l-4.16-.41s.89-10-4.58-15.13C66.4,12.85,59,13.78,54.21,14.87l-.77.18c-1.21.3-2.21.59-2.88.79l-.67.21-.25.08s2.6,5.44-1.49,9.53c-3.47,3.46,1.06,12,1.06,12H43.06c-3.09-1.56-4.23-8-4.23-8s-3.2-8.8.8-15.91c2.17-3.87,9-6.39,16.08-7.2q.63-.07,1.26-.12c5.57-.48,11.19.11,14.83,1.92,2.89,1.43,4.61,4.55,5.62,8.05a29,29,0,0,1,.68,2.93A52.75,52.75,0,0,1,78.65,31.67Z"/><path class="cls-3" d="M52.32,24.17h0a3,3,0,0,0,4.2.76,18.1,18.1,0,0,1,2.81-1.56,2.79,2.79,0,0,0,1.42-3.81h0S54.48,20.18,52.32,24.17Z"/><path class="cls-3" d="M76.63,24.9h0a3,3,0,0,1-4,1.55,17.43,17.43,0,0,0-3.06-1A2.81,2.81,0,0,1,67.47,22h0S73.75,21.4,76.63,24.9Z"/><ellipse class="cls-5" cx="55.16" cy="36.77" rx="4.34" ry="1.71"/><path class="cls-5" d="M77.19,38.43c-.34,0-.69,0-1,0-2.4,0-4.34-.77-4.34-1.71s1.94-1.71,4.34-1.71c.32,0,.64,0,.94,0Z"/><path class="cls-3" d="M72.28,31.57c0,1.3-.59,2.35-1.31,2.35s-1.31-1.05-1.31-2.35.58-2.34,1.31-2.34S72.28,30.28,72.28,31.57Z"/><path class="cls-3" d="M45.26,45.28c-.07.14-1.77,4.1-4.22,5.26l0,0-.14-2.72A9.31,9.31,0,0,0,45.26,45.28Z"/><path class="cls-4" d="M42.88,36.28s-5.18-7-9-1.49c-3.13,4.5,2.79,16.25,9,12.22Z"/><path class="cls-3" d="M42.17,44.92a.53.53,0,0,1-.53-.48,8.93,8.93,0,0,0-5.17-7.18.53.53,0,0,1-.3-.69.53.53,0,0,1,.69-.3,10,10,0,0,1,5.84,8.06.54.54,0,0,1-.47.59Z"/><path class="cls-3" d="M37.2,41.69a.55.55,0,0,1-.42-.2.54.54,0,0,1,.08-.75c.21-.17,2.13-1.68,3.73-1.27a.53.53,0,0,1,.38.65.53.53,0,0,1-.65.38c-.92-.23-2.32.69-2.79,1.07A.52.52,0,0,1,37.2,41.69Z"/><path class="cls-3" d="M65.59,38.1a.54.54,0,1,1,0-1.07,3.65,3.65,0,0,0,3.18-1.48c-2.13-4.39-4.24-8.8-4.26-8.85a.53.53,0,0,1,1-.46c0,.05,2.22,4.63,4.38,9.1a.53.53,0,0,1,0,.46A4.57,4.57,0,0,1,65.59,38.1Z"/></g></g></svg>