<svg xmlns="http://www.w3.org/2000/svg" viewBox="0 0 105.37 275.33"><defs><style>.cls-1{fill:#edcfc7;}.cls-2{fill:#ff8c62;}.cls-3{fill:#ff6217;}.cls-4{fill:#ff261d;}.cls-5{fill:#fff;}.cls-6{fill:#37202c;}.cls-7{fill:#6a4d5d;}.cls-8{fill:#ff9c00;}.cls-9{fill:#6040ff;}.cls-10{fill:#3832b5;}.cls-11{fill:#ff6a4c;}</style></defs><g id="Слой_2" data-name="Слой 2"><g id="Слой_1-2" data-name="Слой 1"><ellipse class="cls-1" cx="52.68" cy="269.78" rx="52.68" ry="5.55"/><polygon class="cls-2" points="32.69 248.83 33.57 255.78 42.46 255.78 42.98 248.46 32.69 248.83"/><polygon class="cls-2" points="56.47 247.7 57.55 255.78 66.44 255.78 66.1 247.46 56.47 247.7"/><path class="cls-3" d="M88.39,269.78H54.75a4.8,4.8,0,0,1-.44-1.86c-.21-2.84.7-7.37,1.14-10.22,0-.33.1-.64.14-.93a10.06,10.06,0,0,0,.1-1.16,1.72,1.72,0,0,1,2.07-1.93c3.4,3.33,7.25-1.66,9.51,0,0,0,1,.7,3.64,3.09s7.21,4,11.08,5.59c5,2.08,6.4,4.15,6.68,5.59A2.59,2.59,0,0,1,88.39,269.78Z"/><path class="cls-4" d="M88.39,269.78H54.75a4.8,4.8,0,0,1-.44-1.86H88.67A2.59,2.59,0,0,1,88.39,269.78Z"/><path class="cls-5" d="M67.77,255.08s.6-1.47,1.93-1,1.21,2.66,1.21,2.66S70.1,258.74,67.77,255.08Z"/><path class="cls-5" d="M67.36,261.67a.56.56,0,0,1-.56-.55A7,7,0,0,1,69,255.91a.55.55,0,1,1,.72.84,5.93,5.93,0,0,0-1.79,4.37A.55.55,0,0,1,67.36,261.67Z"/><path class="cls-5" d="M74.35,257.33a.59.59,0,0,1-.37-.14c-.7-.62-2.77-.74-3.91-.67a.55.55,0,1,1-.07-1.1c.35,0,3.44-.19,4.72.94a.55.55,0,0,1,0,.78A.56.56,0,0,1,74.35,257.33Z"/><path class="cls-5" d="M68.27,257a20.31,20.31,0,0,1-2.69-.21c-1.76-.24-3.08-1.05-3.46-2.11a1.72,1.72,0,0,1,.41-1.79,2.34,2.34,0,0,1,1.73-.74h0c2.32,0,5.14,2.71,5.45,3l-.57.58h0l.24,1.18A7.2,7.2,0,0,1,68.27,257Zm-4-3.65h0a1.15,1.15,0,0,0-.88.37.51.51,0,0,0-.14.57c.18.51,1,1.12,2.49,1.31a16.74,16.74,0,0,0,2.92.19C67.74,255,65.72,253.36,64.31,253.36Z"/><path class="cls-5" d="M70.38,256.4l-.52-1.08c1.11-.52,2.17-1.9,2.1-2.73,0-.2-.1-.45-.62-.6a.67.67,0,0,0-.66.08c-.58.45-.76,2-.74,2.81l-1.2,0c0-.29,0-2.83,1.2-3.79a1.91,1.91,0,0,1,1.73-.28,1.86,1.86,0,0,1,1.49,1.66C73.28,254,71.79,255.73,70.38,256.4Z"/><path class="cls-4" d="M58.18,269.78h-1A7.31,7.31,0,0,0,59,264.41a9.42,9.42,0,0,0-3.54-6.71c0-.33.1-.64.14-.93a10.26,10.26,0,0,1,4.2,7.6A8.07,8.07,0,0,1,58.18,269.78Z"/><path class="cls-5" d="M70.34,258.72a.56.56,0,0,1-.54-.42.55.55,0,0,1,.4-.67l2.1-.52a.57.57,0,0,1,.68.4.55.55,0,0,1-.41.67l-2.1.52Z"/><path class="cls-5" d="M72.44,259.94a.55.55,0,0,1-.14-1.09l2.11-.52a.55.55,0,1,1,.26,1.07l-2.1.52Z"/><path class="cls-5" d="M74.54,261.11a.55.55,0,0,1-.13-1.09l2.1-.52a.54.54,0,0,1,.67.4.55.55,0,0,1-.41.67l-2.1.52Z"/><path class="cls-5" d="M76.83,262.19a.56.56,0,0,1-.54-.42.55.55,0,0,1,.41-.67l2.1-.52a.55.55,0,1,1,.27,1.07l-2.11.52Z"/><path class="cls-5" d="M79.32,263.11a.55.55,0,0,1-.14-1.09l2.1-.52a.57.57,0,0,1,.68.41.55.55,0,0,1-.41.66l-2.1.52A.32.32,0,0,1,79.32,263.11Z"/><path class="cls-6" d="M18.87,129.37c.08.35.18.69.28,1v0c.14.45.3.88.47,1.3,1.5,3.67,13.15,4.21,24.62,2.93,8.89-1,17.67-3.07,21.53-5.64,3.62-2.41-4.09-24.64-4.09-24.64l-43.5,9.1S17.21,122.73,18.87,129.37Z"/><path class="cls-6" d="M71.5,192.09,67.78,248,55,248.42s-4.41-42.23-2.77-52.54l-7.13-61.3-.17-1.44,16.45-7.55,1-.47,4.18-1.92c0,.33.08.67.11,1,.14,1.26.27,2.51.4,3.76,0,.37.07.75.11,1.12,2.45,23.7,4.13,45.47,4.31,61.54,0,.38,0,.75,0,1.12Z"/><path class="cls-7" d="M71.5,191.74a15.88,15.88,0,0,1-3.68.4A21.88,21.88,0,0,1,64,191.8a.55.55,0,1,1,.22-1.07,19.06,19.06,0,0,0,7.32-.11C71.49,191,71.5,191.37,71.5,191.74Z"/><path class="cls-7" d="M57,246.66h.07a.54.54,0,0,0,.47-.59C53,209.18,55.94,194,56,193.86a.32.32,0,0,0,0-.17l-7.69-58.46a.52.52,0,0,0-.59-.46.53.53,0,0,0-.46.6l7.67,58.37c-.24,1.32-2.82,16.84,1.58,52.46A.52.52,0,0,0,57,246.66Z"/><path class="cls-7" d="M56.73,116a21.63,21.63,0,0,0,4.62,9.56,12,12,0,0,0,2.45,2.08,10.56,10.56,0,0,0,2.27,1.1,8.28,8.28,0,0,0,1.11.31c0-.37-.07-.74-.11-1.12l-.54-.16a9.25,9.25,0,0,1-2.16-1,11,11,0,0,1-2-1.66c-3.52-3.66-4.59-9.22-4.6-9.28a.54.54,0,0,0-.63-.43A.52.52,0,0,0,56.73,116Z"/><path class="cls-7" d="M49.08,132.37a.45.45,0,0,1-.42.45h0a.44.44,0,0,1-.47-.41c-.08-1.6-.17-3.24-.28-4.88,0-.29,0-.58,0-.87-.35-5.35-.8-10.61-1.13-14.33,0-.3,0-.59-.08-.87-.07-.81-.14-1.54-.2-2.15l.88-.14c.06.61.13,1.34.2,2.16,0,.28,0,.58.08.88.33,3.68.77,8.89,1.12,14.22l.06.88C48.9,129,49,130.71,49.08,132.37Z"/><path class="cls-7" d="M50.35,126.71a10.82,10.82,0,0,1-1.56.6c-.27.08-.57.16-.88.22a7.71,7.71,0,0,1-.84.11,3,3,0,0,1-1.49-.24,1.79,1.79,0,0,1-1-1.35c-.32-1.65-1-8.48-1.46-13.3,0-.3-.06-.59-.08-.87-.08-.77-.14-1.48-.2-2.07l.89-.11c.05.6.12,1.31.19,2.09q0,.42.09.87c.45,4.81,1.13,11.63,1.44,13.23a1,1,0,0,0,.54.75,3.13,3.13,0,0,0,1.88,0c.3-.06.6-.15.87-.23A12.48,12.48,0,0,0,50,126a.45.45,0,0,1,.6.19A.41.41,0,0,1,50.35,126.71Z"/><path class="cls-6" d="M44.25,127.63V246.92l-.13,1.89H30.91c-.7-4.26-5.66-21.47-6.35-35.81-.74-15.44-.54-35.45-.54-35.45-1.43-10.92-3.64-33.94-4.87-47.11v0c0-.35-.06-.7-.09-1-.5-5.28-.81-8.73-.81-8.73,2.05-.85,5.7-.32,9.63.76l1,.29A121.4,121.4,0,0,1,44.25,127.63Z"/><path class="cls-7" d="M44.25,188.14v1.12a15.05,15.05,0,0,1-3.18.32,23.57,23.57,0,0,1-6.07-.85.55.55,0,0,1-.37-.68.55.55,0,0,1,.68-.37S40.2,189.1,44.25,188.14Z"/><path class="cls-7" d="M32.35,248.23h.11a.52.52,0,0,0,.42-.62c0-.19-3.65-18.85-5.21-29.43s-.8-40.19-.79-40.49v-.08c-1.17-9.91-3.57-44.15-3.59-44.5a.54.54,0,0,0-1.07.07c0,.35,2.42,34.53,3.59,44.52,0,1.23-.75,30.18.8,40.64s5.18,29.28,5.22,29.47A.52.52,0,0,0,32.35,248.23Z"/><path class="cls-3" d="M46.17,267.63v.23c0,.36,0,.67,0,.95,0,.6-.08,1-.08,1H26a10.7,10.7,0,0,1,0-1.92,10,10,0,0,1,3.58-7.39c3.79-2.92,2.33-2.31,3.1-3.64.09-.15.77-2.41.84-2.57.66-1.38,1.26-2,4.85-2,4.76,0,5.18,2.3,5.69,3.51a23.84,23.84,0,0,1,.79,2.82c.12.51.24,1.05.36,1.6.29,1.37.56,2.81.75,3.95A20.08,20.08,0,0,1,46.17,267.63Z"/><path class="cls-4" d="M46.17,267.63v.23c0,.36,0,.67,0,.95a5.69,5.69,0,0,1-2.08-2.69c-1.24-3.37.67-7.41.75-7.58l0,0c.12.51.24,1.05.36,1.6a8.9,8.9,0,0,0-.25,5.63A4.61,4.61,0,0,0,46.17,267.63Z"/><path class="cls-4" d="M46.17,267.86c0,1.14-.12,1.92-.12,1.92H26a10.7,10.7,0,0,1,0-1.92Z"/><path class="cls-5" d="M36.25,255.15a.69.69,0,0,1-.24-.05c-.5-.23-5-2.3-5.32-4.46a1.79,1.79,0,0,1,.64-1.66,1.68,1.68,0,0,1,1.62-.46c2,.54,3.56,5,3.84,5.89a.57.57,0,0,1-.16.6A.59.59,0,0,1,36.25,255.15Zm-3.72-5.54a.64.64,0,0,0-.43.2.66.66,0,0,0-.28.65c.15.92,1.85,2.12,3.4,3-.71-1.74-1.73-3.59-2.56-3.81Z"/><path class="cls-5" d="M37.22,255.15a.59.59,0,0,1-.38-.14.57.57,0,0,1-.16-.6c.28-.89,1.82-5.35,3.84-5.89a1.68,1.68,0,0,1,1.62.46,1.79,1.79,0,0,1,.64,1.66c-.35,2.16-4.82,4.23-5.32,4.46A.69.69,0,0,1,37.22,255.15Zm3.72-5.54h-.13c-.83.22-1.85,2.07-2.56,3.81,1.55-.85,3.25-2.06,3.4-3a.66.66,0,0,0-.28-.65A.64.64,0,0,0,40.94,249.61Z"/><path class="cls-5" d="M36.72,253.49s-.94-.44-1,.83c-.06,1,.68,1.26,1,1.09a.89.89,0,0,0,1-.32C38,254.58,37.75,253,36.72,253.49Z"/><path class="cls-5" d="M32.62,257a.6.6,0,0,1-.34-.11.57.57,0,0,1-.12-.8,4.89,4.89,0,0,1,4.7-1.86.57.57,0,0,1,.45.67.59.59,0,0,1-.68.45,3.71,3.71,0,0,0-3.55,1.42A.58.58,0,0,1,32.62,257Z"/><path class="cls-5" d="M41.37,257.55a.59.59,0,0,1-.52-.34c-.92-2-4.15-2.52-4.19-2.52a.57.57,0,1,1,.17-1.13c.16,0,3.88.59,5.06,3.18a.56.56,0,0,1-.28.75A.53.53,0,0,1,41.37,257.55Z"/><path class="cls-5" d="M39,258.45h-.15a9.86,9.86,0,0,0-4.64-.1.57.57,0,1,1-.31-1.1,11.18,11.18,0,0,1,5.24.09.57.57,0,0,1,.41.7A.58.58,0,0,1,39,258.45Z"/><path class="cls-5" d="M38.16,260.26l-.14,0a10.24,10.24,0,0,0-4.65-.1.56.56,0,0,1-.7-.39.56.56,0,0,1,.4-.7,10.83,10.83,0,0,1,5.23.09.57.57,0,0,1-.14,1.12Z"/><path class="cls-5" d="M37.15,262.31l-.14,0a10,10,0,0,0-4.65-.09.57.57,0,1,1-.3-1.1,11,11,0,0,1,5.24.09.57.57,0,0,1-.15,1.12Z"/><path class="cls-7" d="M18.87,129.37c.08.35.18.69.28,1a.08.08,0,0,0,0,0h0a8.81,8.81,0,0,0,5.15-1.71,14.22,14.22,0,0,0,4.61-7,27.18,27.18,0,0,0,1.28-6.49.53.53,0,0,0-.5-.56.53.53,0,0,0-.56.5,27.23,27.23,0,0,1-1.26,6.26,13.15,13.15,0,0,1-4.21,6.47,7.73,7.73,0,0,1-4.61,1.5Z"/><path class="cls-8" d="M25.57,143.09a6.84,6.84,0,0,0,3.1-1c7.36-4.32,4.54-23.35,4.41-24.16a.61.61,0,0,0-.7-.51.62.62,0,0,0-.52.7c0,.19,2.82,19-3.82,22.91a4.79,4.79,0,0,1-5,.19c-2-1.17-3.2-3.79-3.11-6.66a.62.62,0,1,0-1.23,0c-.11,3.31,1.35,6.36,3.71,7.75A5.61,5.61,0,0,0,25.57,143.09Z"/><path class="cls-9" d="M65.49,112.92c-9.18,8.55-30.91,13.09-47.65,5C16,112.88,14,95,13.44,89.69c-.11-1.06-.2-2.12-.27-3.19a141.16,141.16,0,0,1,0-15.67c0-.29,0-.58,0-.88.22-4.43.55-9,.85-13.92.62-9.67,3.86-15.63,9.48-16.53a23.72,23.72,0,0,0,2.93-.64l.48-.14c.5-.16,1-.32,1.41-.49s1-.39,1.4-.59l.19-.1.34-.16a17.55,17.55,0,0,0,2.84-1.76H45.68A9.28,9.28,0,0,0,49,38.56l.62.32.5.22.51.21c.41.16.83.3,1.25.44h0c4,1.26,8,1.59,8.95,6.24.67,3.36-1.91,10.28-1.64,24.3,0,1,.06,2.1.11,3.2s.11,2.11.2,3.22.17,2.09.27,3.18.21,1.94.33,3,.27,2.09.42,3.18C61.33,91.84,63.57,105.43,65.49,112.92Z"/><path class="cls-5" d="M40.88,47.76c-7.65,0-9.62-10.6-9.7-11a.45.45,0,0,1,.37-.53.46.46,0,0,1,.54.37c0,.1,1.91,10.29,8.79,10.29a4.93,4.93,0,0,0,3.87-1.6c2.41-2.71,1.79-8,1.79-8a.47.47,0,0,1,.4-.52.46.46,0,0,1,.51.41c0,.23.67,5.73-2,8.75A5.79,5.79,0,0,1,40.88,47.76Z"/><path class="cls-10" d="M45.18,60.54,55.48,60s2.71,13.49-3.72,14C44.3,74.6,45.18,60.54,45.18,60.54Z"/><path class="cls-10" d="M41.82,55.13a15.71,15.71,0,0,1-6.77-1.71,28.82,28.82,0,0,1-7.1-5,.32.32,0,0,1,0-.42.27.27,0,0,1,.39,0,28.21,28.21,0,0,0,7,4.86c5.31,2.54,9.88,2.18,13.59-1.07a.26.26,0,0,1,.38,0,.32.32,0,0,1,0,.42,11,11,0,0,1-7.29,2.85Z"/><path class="cls-10" d="M41.67,49.93c-3,0-6.4-2.54-6.59-2.68a.32.32,0,0,1-.07-.41.27.27,0,0,1,.38-.07c.06,0,5.81,4.28,8.49,1.78a.25.25,0,0,1,.38,0,.32.32,0,0,1,0,.42A3.64,3.64,0,0,1,41.67,49.93Z"/><path class="cls-10" d="M49.51,102.16a19.88,19.88,0,0,1-3.4-.3,28.66,28.66,0,0,1-8.83-3.26,42.25,42.25,0,0,1-8.69-6.46.3.3,0,0,1,0-.41.25.25,0,0,1,.38,0,41.86,41.86,0,0,0,8.58,6.37c4.65,2.57,11.61,5,18.4,2.22a.26.26,0,0,1,.35.17.31.31,0,0,1-.16.38A17,17,0,0,1,49.51,102.16Z"/><path class="cls-6" d="M32.17,23.94s-.25,4.06-1.71,5.42c0,0,2.5,2.78,5,2C35.46,31.38,34.09,25,32.17,23.94Z"/><path class="cls-6" d="M55.12,13.5a9.75,9.75,0,0,1-.23,1.15h0a12.77,12.77,0,0,1-1.6,3.58l-.33,0h-.33l-1.13-.05s-3.22-9.72-8.13-9.07-7.25,11-7.25,11l-5.94-.94S27.27,12,30.56,6.79c2.73-4.34,7.74-3,7.74-3S43.42.55,48.46,3C51.72,4.49,55.83,8.23,55.12,13.5Z"/><path class="cls-2" d="M46,33.32v3.2a11.15,11.15,0,0,1-1.14.79c-5.56,3.33-11.57-.79-11.57-.79V25.44l11.19,6.94Z"/><path class="cls-6" d="M46,33.32V36c-6.86-1.21-9.32-5.55-9.32-5.55l7.8,1.89Z"/><path class="cls-11" d="M50,19.32s1.82-2.14,2.85,0,.24,6.49-2.53,5.78Z"/><path class="cls-2" d="M51.94,26.84s0,6.6-6.88,6.59S33.54,28.06,33.3,27.81h0l-.07-1.39-.39-7.2-.21-3.85s-.88-6.93,5.74-8.2C43.19,6.24,47.72,7,50,9.55a2.62,2.62,0,0,1,.22.25A6,6,0,0,1,51.52,13l.21,6.91.05,1.7Z"/><path class="cls-6" d="M52.53,18.19,50.41,18s.45-5.1-2.35-7.71c-1.79-1.68-5.56-1.2-8-.64l-.4.09c-.62.15-1.13.3-1.47.4l-.34.11-.13,0a4.42,4.42,0,0,1-.76,4.85c-1.78,1.77.54,6.13.54,6.13H34.34c-1.58-.8-2.17-4.11-2.17-4.11s-1.63-4.48.41-8.1c1.11-2,4.58-3.25,8.22-3.67l.65-.06A15.27,15.27,0,0,1,49,6.3a6.23,6.23,0,0,1,2.87,4.1c.14.49.26,1,.35,1.49A26.57,26.57,0,0,1,52.53,18.19Z"/><path class="cls-6" d="M39,14.75h0a1.57,1.57,0,0,0,2,.79A8.64,8.64,0,0,1,42.63,15a1.42,1.42,0,0,0,1.08-1.77h0S40.5,13,39,14.75Z"/><path class="cls-6" d="M51.5,14.75h0a1.57,1.57,0,0,1-2,.79A8.64,8.64,0,0,0,47.9,15a1.42,1.42,0,0,1-1.08-1.77h0S50,13,51.5,14.75Z"/><ellipse class="cls-11" cx="40.52" cy="20.79" rx="2.22" ry="0.87"/><path class="cls-11" d="M51.78,21.64l-.53,0c-1.23,0-2.22-.39-2.22-.87s1-.87,2.22-.87l.48,0Z"/><path class="cls-6" d="M42.62,18.15c0,.66-.3,1.19-.67,1.19s-.68-.53-.68-1.19.3-1.2.68-1.2S42.62,17.49,42.62,18.15Z"/><path class="cls-6" d="M49.28,18.15c0,.66-.3,1.19-.68,1.19s-.67-.53-.67-1.19.3-1.2.67-1.2S49.28,17.49,49.28,18.15Z"/><path class="cls-6" d="M47,24.67a7.11,7.11,0,0,1-4.43-2.09.27.27,0,1,1,.4-.37c.13.13,3.2,3.33,6.2,1.2a.27.27,0,1,1,.31.44A4.15,4.15,0,0,1,47,24.67Z"/><path class="cls-6" d="M35.46,25.13a6.05,6.05,0,0,1-2.16,2.68h0l-.07-1.39A4.72,4.72,0,0,0,35.46,25.13Z"/><path class="cls-2" d="M34.24,20.54s-2.65-3.54-4.59-.76c-1.6,2.3,1.43,8.28,4.59,6.23Z"/><path class="cls-6" d="M33.88,25a.28.28,0,0,1-.27-.25A4.54,4.54,0,0,0,31,21a.27.27,0,0,1-.15-.35.28.28,0,0,1,.36-.15,5.1,5.1,0,0,1,3,4.1.26.26,0,0,1-.24.3Z"/><path class="cls-6" d="M31.34,23.3a.28.28,0,0,1-.21-.1.26.26,0,0,1,0-.38,2.58,2.58,0,0,1,1.9-.65.27.27,0,0,1,.2.33.28.28,0,0,1-.33.2c-.48-.12-1.19.35-1.43.54A.27.27,0,0,1,31.34,23.3Z"/><path class="cls-6" d="M45.85,21.47a.27.27,0,1,1,0-.54,1.86,1.86,0,0,0,1.63-.76c-1.09-2.23-2.17-4.48-2.18-4.51a.27.27,0,0,1,.13-.36.27.27,0,0,1,.36.13s1.14,2.36,2.25,4.63a.33.33,0,0,1,0,.24A2.35,2.35,0,0,1,45.85,21.47Z"/><path class="cls-2" d="M62.3,70.9A5.18,5.18,0,0,0,56,67.18c-1.92.49-3.71,1-5.47,1.6S47,69.93,45.33,70.52c-1.37.46-2.72.93-4.07,1.4l-1.37.48c-1.56.54-3.12,1.08-4.68,1.6-3.33,1.13-6.66,2.19-9.92,3.09-1.63.45-3.25.86-4.82,1.18A32.76,32.76,0,0,1,16,78.9l-.93,0v-.06l.06-.55c.08-.74.2-1.49.34-2.24.28-1.52.63-3.06,1.06-4.62s.93-3.11,1.47-4.68,1.14-3.12,1.76-4.68c.31-.78.63-1.55,1-2.33s.66-1.54,1-2.31.7-1.53,1.06-2.29l.54-1.12.27-.55.25-.5.1-.19a6.42,6.42,0,0,0-11.37-6l-.38.69-.35.64-.67,1.27c-.43.85-.86,1.7-1.26,2.55s-.81,1.71-1.19,2.57S8,56.31,7.65,57.19q-1.1,2.63-2,5.35T3.94,68.1A57.16,57.16,0,0,0,2.7,74c-.16,1-.29,2-.38,3.07l-.06.79-.06.79,0,.8v.88A12.6,12.6,0,0,0,2.44,83a10.72,10.72,0,0,0,1.25,3.14,10,10,0,0,0,2.39,2.7,9.55,9.55,0,0,0,1.38.93,11.68,11.68,0,0,0,1.35.64,13.66,13.66,0,0,0,2.45.71,15.61,15.61,0,0,0,2.13.26A23.8,23.8,0,0,0,17,91.32c1.12-.1,2.18-.26,3.2-.45s2-.41,3-.64c1.93-.47,3.77-1,5.57-1.58,3-1,5.93-2,8.79-3.13l1.08-.41.59-.23c3.39-1.33,6.73-2.7,10-4q2.48-1,4.9-2c1.61-.63,3.22-1.25,4.74-1.76l.07,0A5.15,5.15,0,0,0,62.3,70.9Z"/><path class="cls-2" d="M71.84,75.57c-.52-3.42-1.37-7.33-2.28-11-1.81-7.32-3.84-13.84-4-14.25a6.43,6.43,0,0,0-8-4.2,6.1,6.1,0,0,0-1.61.75c0,1.06.16,2.3.36,3.78A84.63,84.63,0,0,1,56.44,65c.16.63.33,1.27.49,1.91.61,2.44,1.19,5,1.66,7.35-.87,0-2,0-3.55-.1-3.46-.23-7.59-.78-12-1.37-9-1.21-18.32-2.46-25.21-1.37a6.4,6.4,0,0,0,1,12.72,7,7,0,0,0,1-.08c5-.8,13.78.37,21.49,1.41a134.47,134.47,0,0,0,16.46,1.6c5,0,8.93-.9,11.53-3.54A9.14,9.14,0,0,0,71.84,75.57Z"/><path class="cls-9" d="M21.57,41.28s-6.45-.76-10.12,4S3,61.76,3,61.76s12.25,7.5,19.2,7.21c0,0,5.17-12.42,6-17.39C29.49,43.3,21.57,41.28,21.57,41.28Z"/><path class="cls-2" d="M19,65.1l-1.62,3.2s-1.57-.51-3.63-1.15c-.83,1.7-1.9,3.33-2.71,4.91-.91,1.76-1.78,3.54-2.65,5.31,3.64,1.7,8,3.44,9.79,3.73,3.22.53,4.7-8.38,4.7-8.38S21.44,66.22,19,65.1Z"/><path class="cls-9" d="M73.09,63.13s-1.41.64-3.53,1.4c-3.34,1.19-8.43,2.66-12.63,2.42l-.62,0s.06-.71.13-1.87a84.63,84.63,0,0,0-.13-14.43c-.2-1.48-.32-2.72-.36-3.78-.22-4.86.95-5.55.95-5.55a9.65,9.65,0,0,1,8.64,4.4C68.91,50.7,73.09,63.13,73.09,63.13Z"/><path class="cls-11" d="M38.62,85.11l-1.08.41c-9.76-2-22.52-3.75-22.67-3.77a.3.3,0,0,1-.26-.35.31.31,0,0,1,.35-.27C15.11,81.16,28.74,83.05,38.62,85.11Z"/><path class="cls-11" d="M61.15,74.33a.31.31,0,0,1-.31.29h0c-7-.67-16.57-1.74-20.92-2.22l1.37-.48C46,72.45,54.52,73.39,60.87,74A.31.31,0,0,1,61.15,74.33Z"/><path class="cls-11" d="M58.2,74a.23.23,0,0,1-.14,0,.3.3,0,0,1-.13-.42,9.83,9.83,0,0,1,1.8-2.17.31.31,0,1,1,.42.46,10,10,0,0,0-1.67,2A.31.31,0,0,1,58.2,74Z"/><path class="cls-6" d="M32.29,23.14s-.26,4.3-1.77,5.74c0,0,2.59,2.94,5.17,2.13C35.69,31,34.28,24.22,32.29,23.14Z"/><path class="cls-6" d="M56,12.1a10.94,10.94,0,0,1-.24,1.22h0a13.6,13.6,0,0,1-1.66,3.78h-.34l-.33,0L52.27,17s-3.33-10.27-8.4-9.58-7.5,11.67-7.5,11.67l-6.14-1s-3-7.6.39-13.11c2.83-4.58,8-3.2,8-3.2s5.29-3.39,10.5-.86C52.5,2.57,56.76,6.53,56,12.1Z"/><path class="cls-2" d="M46.58,33.07v3.37a9,9,0,0,1-1.17.84c-5.75,3.53-12-.84-12-.84V24.73L45,32.07Z"/><path class="cls-6" d="M46.58,33.07v2.87C39.5,34.66,37,30.07,37,30.07l8.07,2Z"/><path class="cls-11" d="M50.73,18.26s1.88-2.27,2.94,0,.25,6.86-2.62,6.11Z"/><path class="cls-2" d="M52.73,26.21s0,7-7.11,7S33.71,27.5,33.46,27.23h0l-.08-1.47L33,18.14l-.22-4.07s-.9-7.34,5.93-8.67c5-1,9.68-.13,12,2.52l.22.27a6.36,6.36,0,0,1,1.34,3.41l.22,7.31.06,1.8Z"/><path class="cls-6" d="M44.37,15.88a.3.3,0,0,0-.31.22s-.34,1.16-1.25,1.13h0c-.93-.05-1.4-1.12-1.41-1.13a.31.31,0,0,0-.4-.17.33.33,0,0,0-.16.41,2.49,2.49,0,0,0,1.93,1.51h0c1.38,0,1.84-1.51,1.86-1.58a.31.31,0,0,0-.21-.38Z"/><path class="cls-6" d="M51.62,15.7a.32.32,0,0,0-.31.23s-.34,1.16-1.25,1.13h0c-.93,0-1.4-1.13-1.4-1.14a.31.31,0,1,0-.56.25A2.45,2.45,0,0,0,50,17.68h0c1.38.05,1.84-1.52,1.86-1.58a.32.32,0,0,0-.21-.39Z"/><path class="cls-6" d="M42.4,24.35a.31.31,0,0,1-.12-.6c.19-.08,4.75-2,8-.39a.33.33,0,0,1,.14.42.3.3,0,0,1-.41.14c-3-1.51-7.49.38-7.54.4A.2.2,0,0,1,42.4,24.35Z"/><path class="cls-6" d="M53.34,17.07l-2.2-.22s.47-5.4-2.42-8.16C46.86,6.92,43,7.43,40.42,8l-.41.1c-.64.16-1.17.32-1.52.43l-.35.11-.13,0a4.77,4.77,0,0,1-.8,5.14c-1.83,1.86.57,6.47.57,6.47H34.53C32.89,19.46,32.29,16,32.29,16s-1.69-4.74.42-8.57c1.15-2.08,4.74-3.44,8.5-3.88l.67-.06a15.57,15.57,0,0,1,7.84,1,6.63,6.63,0,0,1,3,4.34c.15.52.26,1,.36,1.58A28.78,28.78,0,0,1,53.34,17.07Z"/><path class="cls-6" d="M39.19,13.88h0a1.59,1.59,0,0,0,2.26.07,8.24,8.24,0,0,1,1.34-1.06,1.54,1.54,0,0,0,.44-2.15h0S40,11.58,39.19,13.88Z"/><path class="cls-6" d="M52,14.43h0a1.58,1.58,0,0,1-2.25-.14,8.84,8.84,0,0,0-1.25-1.17,1.53,1.53,0,0,1-.25-2.18h0S51.41,12.07,52,14.43Z"/><path class="cls-11" d="M43.22,19.81c0,.51-1,.92-2.3.92s-2.29-.41-2.29-.92,1-.92,2.29-.92S43.22,19.31,43.22,19.81Z"/><path class="cls-11" d="M52.57,20.71a5.06,5.06,0,0,1-.56,0c-1.26,0-2.29-.41-2.29-.92s1-.92,2.29-.92l.5,0Z"/><path class="cls-6" d="M35.69,24.4c0,.08-.94,2.21-2.23,2.83h0l-.08-1.47A4.93,4.93,0,0,0,35.69,24.4Z"/><path class="cls-2" d="M34.43,19.55s-2.74-3.75-4.74-.8c-1.66,2.42,1.47,8.75,4.74,6.59Z"/><path class="cls-6" d="M34.06,24.21a.28.28,0,0,1-.28-.26A4.79,4.79,0,0,0,31,20.08a.3.3,0,0,1-.16-.37.28.28,0,0,1,.37-.16,5.34,5.34,0,0,1,3.09,4.34.29.29,0,0,1-.25.31Z"/><path class="cls-6" d="M31.43,22.46a.26.26,0,0,1-.22-.1.3.3,0,0,1,0-.41,2.69,2.69,0,0,1,2-.68.29.29,0,0,1,.2.35.28.28,0,0,1-.34.21c-.49-.13-1.23.37-1.48.57A.27.27,0,0,1,31.43,22.46Z"/><path class="cls-6" d="M46.44,20.53a.29.29,0,0,1-.29-.29.28.28,0,0,1,.29-.28,1.93,1.93,0,0,0,1.68-.8c-1.13-2.37-2.24-4.75-2.25-4.77A.3.3,0,0,1,46,14a.28.28,0,0,1,.37.14s1.18,2.5,2.32,4.9a.28.28,0,0,1,0,.25A2.39,2.39,0,0,1,46.44,20.53Z"/></g></g></svg>