<svg xmlns="http://www.w3.org/2000/svg" viewBox="0 0 112.33 271.29"><defs><style>.cls-1{fill:#ff8c64;}.cls-2{fill:#634e5d;}.cls-3{fill:#35252f;}.cls-4{fill:#ea6a4f;}.cls-5{fill:#5942ff;}.cls-6{fill:#3935b1;}.cls-7{fill:#fff;}.cls-8{fill:#e5cfc7;}.cls-9{fill:#ea424d;}.cls-10{fill:#a9093b;}.cls-11{fill:#ed6224;}.cls-12{fill:#f79c00;}.cls-13{fill:#ee2a23;}</style></defs><g id="Слой_2" data-name="Слой 2"><g id="OBJECTS"><polyline class="cls-1" points="67.22 243.26 68.3 251.33 77.16 251.33 76.82 243.02"/><polygon class="cls-1" points="44.84 241.36 44.12 251.38 54.41 251.57 54.97 242.18 44.84 241.36"/><path class="cls-2" d="M33.1,129.39c0,.34,2.41,34.52,3.58,44.51,0,1.23-.75,30.17.79,40.62s5.17,29.28,5.2,29.47a.55.55,0,0,0,.53.43h.1a.53.53,0,0,0,.42-.62c0-.19-3.64-18.85-5.2-29.42s-.78-40.19-.78-40.48a.21.21,0,0,0,0-.08c-1.17-9.92-3.55-44.15-3.57-44.49"/><path class="cls-3" d="M55.75,124.11V243.37l-.13,1.89H42.46c-.7-4.25-5.64-21.46-6.33-35.8C35.39,194,35.6,174,35.6,174c-1.43-10.92-3.63-33.94-4.85-47.1"/><path class="cls-1" d="M101.05,43.25c-.31,2.18-.62,4.36-1,6.55s-.78,4.37-1.27,6.58-1,4.41-1.69,6.65a53.64,53.64,0,0,1-2.52,6.82,30.55,30.55,0,0,1-1.93,3.55,18.34,18.34,0,0,1-3,3.68l-.52.46-.13.12-.15.11-.3.22-.29.22a2.57,2.57,0,0,1-.32.22l-.67.42c-.21.13-.48.26-.73.39a7,7,0,0,1-.78.35l-.83.31c-.29.09-.59.17-.89.24a11.63,11.63,0,0,1-3.72.25A12.41,12.41,0,0,1,77,79.57l-.72-.3-.67-.33c-.42-.23-.85-.47-1.22-.71s-.73-.5-1.08-.76-.66-.51-1-.77-.59-.52-.88-.79l-.79-.79c-.51-.53-1-1.06-1.41-1.6a38,38,0,0,1-2.37-3.23c-.35-.55-.69-1.1-1-1.66-.17-.28-.33-.57-.49-.86l-.24-.45L65,67.08,64.93,67l-.09-.18a7.12,7.12,0,0,1,13-5.88h0v0l0,.05.05.12.11.27c.09.19.17.38.27.57q.27.59.57,1.14a22.63,22.63,0,0,0,1.25,2.09c.22.32.43.62.64.88l.32.39.29.32.05.05.17.19.05,0,.16.15,0,0,.18-.19c.15-.16.3-.34.46-.54a17.79,17.79,0,0,0,1.32-2,39.55,39.55,0,0,0,2.37-5.1c.72-1.82,1.37-3.74,2-5.69s1.15-4,1.67-6,1-4.06,1.46-6.1v-.06a5,5,0,0,1,9.77,1.78Z"/><path class="cls-4" d="M81.28,72a.31.31,0,0,1-.27.35h0a.31.31,0,0,1-.31-.28,11,11,0,0,1,.28-3.65,13,13,0,0,1,.36-1.26,3,3,0,0,1,.1-.32l.17.19a.3.3,0,0,1,.25.12,0,0,0,0,0,0,0l.18-.19A12.26,12.26,0,0,0,81.28,72Z"/><path class="cls-4" d="M81.75,67.54a4.57,4.57,0,0,0-.81.83,10.27,10.27,0,0,0-1.2,2.17.31.31,0,0,1-.29.2.25.25,0,0,1-.12,0,.3.3,0,0,1-.17-.4,8.67,8.67,0,0,1,2.14-3.21.27.27,0,0,1,.08-.07.24.24,0,0,1,.19-.06.3.3,0,0,1,.25.12,0,0,0,0,0,0,0A.3.3,0,0,1,81.75,67.54Z"/><path class="cls-5" d="M68.44,40.31s2.58.71,6,8.92c2.38,5.62,5.31,12.19,5.31,12.19L66.25,72s-7.78-15.08-8.8-19.76C56.27,46.8,59.81,39.61,68.44,40.31Z"/><path class="cls-1" d="M90.85,44.44c-.43-.84.24-2.34.31-3.58a14.41,14.41,0,0,1,1.46-5.34c1.08-1.92,4.59-7.38,6.37-7.79s-.88,4.54-1.4,5.57a4.25,4.25,0,0,0-.5,1.91s7-10.88,8.43-11-1.91,6.42-2.74,8c0,0,5.71-7.9,6.66-7.71,1.92.37-4.18,9.33-4.18,9.33s5.15-6.4,6.18-5.53S107,36.07,107,36.07s4-3.68,5.19-3.33-6.49,8.73-7.84,9.88-4.71,4.53-6.69,5.71C96.31,49.13,92.2,47.1,90.85,44.44Z"/><path class="cls-4" d="M105.86,39a.36.36,0,0,0,.13-.46,10.35,10.35,0,0,0-6.17-5.1.37.37,0,0,0-.44.26.35.35,0,0,0,.25.44h0a9.78,9.78,0,0,1,5.7,4.71.37.37,0,0,0,.49.17Z"/><path class="cls-4" d="M98.12,43.9a.36.36,0,0,0,.16-.37,6,6,0,0,1,2-6.2.36.36,0,0,0-.4-.61h0c-.13.08-3.22,2.22-2.32,6.93A.36.36,0,0,0,98,44Z"/><path class="cls-3" d="M77.38,127.09c-3.84,2.57-12.59,4.65-21.45,5.64-11.42,1.28-23,.74-24.53-2.93-.16-.42-.32-.85-.46-1.3,0,0,0,0,0,0-.1-.34-.2-.68-.28-1-.16-.62-.29-1.27-.4-1.93-.07-.39-.13-.78-.18-1.18a63.2,63.2,0,0,1-.1-12.77l43.34-9.09s4.27,12.37,5,19.65c0,.4.06.78.08,1.15C78.41,125.17,78.15,126.58,77.38,127.09Z"/><path class="cls-3" d="M56.4,131l-1.71-8.71,17.17-1.53,1-.55.58-.32,1-.54,2.47-1.38c.06.33.13.66.19,1,.14.78.29,1.56.43,2.34.08.41.15.81.22,1.21a1.1,1.1,0,0,1,0,.16c.08.37.14.74.21,1.11"/><path class="cls-2" d="M60.71,135a.52.52,0,0,0-.58-.42h0a.55.55,0,0,0-.45.64"/><path class="cls-2" d="M78.34,123.26l-.12,0a10.56,10.56,0,0,1-2.27-1.1l-.56-.39a12.58,12.58,0,0,1-1.87-1.69,21.68,21.68,0,0,1-4.61-9.56.53.53,0,1,1,1-.19c0,.06,1.08,5.62,4.58,9.27a11,11,0,0,0,1.71,1.48l.28.19a9.66,9.66,0,0,0,1.73.87C78.3,122.51,78.32,122.89,78.34,123.26Z"/><path class="cls-2" d="M60.24,130.43a.45.45,0,0,1-.42.45h0a.45.45,0,0,1-.47-.41c-.07-1.6-.17-3.24-.27-4.88l-.06-.87c-.35-5.35-.79-10.61-1.12-14.32,0-.3-.06-.59-.08-.87-.08-.82-.14-1.54-.2-2.15l.88-.14c0,.61.12,1.34.2,2.16,0,.28,0,.57.08.87.33,3.68.77,8.89,1.11,14.22,0,.29,0,.59.06.88C60.06,127.07,60.16,128.77,60.24,130.43Z"/><path class="cls-2" d="M61.5,124.78a13.22,13.22,0,0,1-1.55.59c-.27.08-.57.16-.87.22a8,8,0,0,1-.84.11,3.17,3.17,0,0,1-1.49-.23,1.83,1.83,0,0,1-1-1.36c-.33-1.65-1-8.47-1.46-13.3,0-.29,0-.58-.08-.87-.07-.77-.14-1.47-.19-2.07l.88-.11c.05.6.12,1.32.19,2.1,0,.28.06.57.08.86.46,4.82,1.13,11.63,1.45,13.23a1,1,0,0,0,.53.75,3.1,3.1,0,0,0,1.87,0,7.37,7.37,0,0,0,.87-.23,11.11,11.11,0,0,0,1.22-.48.45.45,0,0,1,.59.19A.43.43,0,0,1,61.5,124.78Z"/><path class="cls-2" d="M32.19,123.93a7.65,7.65,0,0,1-1.94,1.57c-.07-.39-.13-.78-.18-1.18a6.59,6.59,0,0,0,1.31-1.12c3.46-3.86,2.62-11.36,2.61-11.43a.54.54,0,1,1,1.08-.13C35.11,112,36,119.71,32.19,123.93Z"/><path class="cls-5" d="M75.4,111a24.05,24.05,0,0,1-3.08,2.42.41.41,0,0,1-.11.07A29.4,29.4,0,0,1,69.67,115l-1,.5A43.25,43.25,0,0,1,60,118.65q-.42.12-.87.21c-.84.2-1.69.38-2.56.53l-.88.15a51.19,51.19,0,0,1-10.41.61c-.42,0-.84,0-1.25-.07-1.12-.07-2.23-.18-3.34-.34h-.08l-1-.15a43.06,43.06,0,0,1-5.35-1.21,38.79,38.79,0,0,1-4.53-1.62c-.26-.1-.51-.22-.76-.33L28,116l-.08,0c-1.83-5-3.84-22.85-4.38-28.19q-.16-1.59-.27-3.18c-.19-2.9-.25-5.8-.22-8.76,0-2,.08-4,.17-6l0-.89s0,0,0-.07c0-.27,0-.54,0-.81.07-1.42.15-2.86.23-4.32.19-3.1.41-6.28.62-9.6.33-5.35,1.47-9.55,3.36-12.4a11,11,0,0,1,1.58-1.89,8.3,8.3,0,0,1,4.5-2.23,23.31,23.31,0,0,0,2.91-.65L37,36.8c.5-.15,1-.32,1.41-.48s1-.4,1.39-.6l.2-.09.33-.17a17.74,17.74,0,0,0,2.84-1.75h12.5l.3.41,0,0a9.57,9.57,0,0,0,3,2.49l.62.32.49.22c.17.08.35.15.52.21.41.16.82.31,1.24.44h0c3,1,6.11,1.39,7.8,3.62a6,6,0,0,1,.67,1.16,7.36,7.36,0,0,1,.45,1.46,7.28,7.28,0,0,1,.11,1c.12,3.67-2,10.54-1.75,23.3,0,.79,0,1.61.08,2.44l0,.76c0,.52,0,1,.09,1.58h0c0,.53.07,1.08.11,1.63.07,1,.17,2.1.28,3.19s.2,1.94.32,2.94.26,2.09.42,3.18c.62,4.31,2,12.88,3.46,20.07.22,1.13.46,2.23.69,3.27,0,.11,0,.22.07.33C74.9,108.92,75.15,110,75.4,111Z"/><path class="cls-6" d="M56.15,56.91l10.25-.79s3,13.43-3.42,14.09C55.57,71,56.15,56.91,56.15,56.91Z"/><path class="cls-7" d="M51.78,45.84C45,45.84,40.34,35.48,40.13,35a.47.47,0,0,1,.24-.62.48.48,0,0,1,.62.24c0,.12,5.17,11.49,11.91,10.16a4.85,4.85,0,0,0,3.55-2.34c1.57-2.85-.06-7.16-.08-7.21a.47.47,0,0,1,.87-.33c.08.19,1.81,4.77,0,8a5.75,5.75,0,0,1-4.18,2.81A7.45,7.45,0,0,1,51.78,45.84Z"/><path class="cls-6" d="M51.82,53.21a15.6,15.6,0,0,1-6.75-1.71,28.77,28.77,0,0,1-7.07-5,.31.31,0,0,1,0-.41.26.26,0,0,1,.39,0A28.17,28.17,0,0,0,45.3,51c5.3,2.54,9.85,2.18,13.54-1.07a.26.26,0,0,1,.38,0,.32.32,0,0,1,0,.42,10.89,10.89,0,0,1-7.27,2.85Z"/><path class="cls-6" d="M51.67,48c-3,0-6.37-2.53-6.56-2.67a.3.3,0,0,1-.07-.41.25.25,0,0,1,.37-.08c.06,0,5.79,4.28,8.46,1.78a.26.26,0,0,1,.38,0,.32.32,0,0,1,0,.42A3.62,3.62,0,0,1,51.67,48Z"/><path class="cls-6" d="M59.48,100.22a19.76,19.76,0,0,1-3.39-.3,27.87,27.87,0,0,1-8.79-3.26,41.62,41.62,0,0,1-8.66-6.45.31.31,0,0,1,0-.41.26.26,0,0,1,.39,0,41.47,41.47,0,0,0,8.55,6.37c4.63,2.57,11.56,5,18.32,2.22a.26.26,0,0,1,.35.17.29.29,0,0,1-.15.38A17,17,0,0,1,59.48,100.22Z"/><path class="cls-3" d="M39.75,24s.52,4-.65,5.64c0,0,3,2.27,5.26,1.05C44.36,30.64,41.83,24.6,39.75,24Z"/><path class="cls-3" d="M60.26,9.42a9.17,9.17,0,0,1,0,1.17h0a12.88,12.88,0,0,1-.9,3.82l-.32,0-.32.05-1.12.16s-5-8.94-9.65-7.39-5,12.19-5,12.19l-6,.19s-4.2-6.51-2-12.24C36.83,2.64,42,3,42,3S46.39-1.12,51.77.3C55.25,1.21,60,4.11,60.26,9.42Z"/><path class="cls-1" d="M55,30.59l.6,3.13a9.06,9.06,0,0,1-1,1C49.85,39,43.21,36.09,43.21,36.09L41.13,25.22,53.38,30Z"/><path class="cls-3" d="M55,30.59l.51,2.66c-6.93.09-10.16-3.71-10.16-3.71l8,.41Z"/><path class="cls-4" d="M56.34,16.09s1.38-2.44,2.79-.53,1.45,6.32-1.4,6.14Z"/><path class="cls-1" d="M59.65,23.11s1.24,6.49-5.5,7.76-12.28-3.13-12.57-3.33h0l-.34-1.35-1.73-7-.92-3.74s-2.15-6.65,4.08-9.12c4.55-1.81,9.14-1.87,11.84.17l.26.21a5.9,5.9,0,0,1,1.88,2.93l1.5,6.75L58.52,18Z"/><path class="cls-7" d="M49.52,20.53s4.17.77,7-.32c0,0,0,3.89-3.63,3.66C50.5,23.71,49.52,20.53,49.52,20.53Z"/><path class="cls-3" d="M58.61,14.51l-2.12.2S56,9.61,52.75,7.57c-2.07-1.31-5.67-.14-8,.87l-.37.16c-.58.26-1,.5-1.37.67l-.31.17-.12.06a4.43,4.43,0,0,1,.16,4.91c-1.41,2.07,1.68,5.91,1.68,5.91l-3.08.59c-1.69-.49-2.88-3.62-2.88-3.62s-2.44-4.1-1.12-8c.72-2.14,3.87-4,7.36-5.13l.62-.19A15.2,15.2,0,0,1,53,3.48,6.24,6.24,0,0,1,56.53,7c.23.46.44.93.62,1.4A27.15,27.15,0,0,1,58.61,14.51Z"/><path class="cls-3" d="M44.75,13.64h0a1.56,1.56,0,0,0,2.14.4,8.76,8.76,0,0,1,1.43-.8,1.42,1.42,0,0,0,.73-1.94h0S45.86,11.61,44.75,13.64Z"/><path class="cls-3" d="M57,11.32h0a1.55,1.55,0,0,1-1.85,1.15,9.65,9.65,0,0,0-1.62-.21,1.43,1.43,0,0,1-1.39-1.53h0S55.18,9.84,57,11.32Z"/><path class="cls-4" d="M49.51,18.89c.09.47-.81,1-2,1.27s-2.24,0-2.33-.44.81-1,2-1.27S49.42,18.42,49.51,18.89Z"/><path class="cls-4" d="M58.52,18l-.52.13c-1.2.23-2.24,0-2.33-.44s.81-1,2-1.27a4.64,4.64,0,0,1,.48-.07Z"/><path class="cls-3" d="M49,16.29c.12.65-.07,1.23-.44,1.3s-.75-.4-.88-1.05.07-1.23.44-1.3S48.89,15.64,49,16.29Z"/><path class="cls-3" d="M55.53,15.05c.13.65-.07,1.23-.43,1.3s-.76-.4-.88-1.05.07-1.23.43-1.3S55.41,14.4,55.53,15.05Z"/><path class="cls-3" d="M43.19,24.5a5.94,5.94,0,0,1-1.61,3h0l-.34-1.35A4.69,4.69,0,0,0,43.19,24.5Z"/><path class="cls-1" d="M41.15,20.23s-3.26-3-4.64.11c-1.13,2.55,3,7.86,5.66,5.26Z"/><path class="cls-3" d="M41.62,24.62a.28.28,0,0,1-.31-.19A4.55,4.55,0,0,0,38,21.33a.27.27,0,0,1,.11-.53,5.08,5.08,0,0,1,3.69,3.47.27.27,0,0,1-.18.34Z"/><path class="cls-3" d="M38.82,23.48a.32.32,0,0,1-.23-.06.28.28,0,0,1,0-.39c.09-.1.9-1,1.74-1a.28.28,0,0,1,.26.29.28.28,0,0,1-.29.26c-.48,0-1.1.56-1.29.79A.39.39,0,0,1,38.82,23.48Z"/><path class="cls-3" d="M52.68,19a.26.26,0,0,1-.31-.21.27.27,0,0,1,.21-.32A1.86,1.86,0,0,0,54,17.39c-1.48-2-3-4-3-4a.26.26,0,0,1,.06-.38.27.27,0,0,1,.38.06s1.55,2.11,3.06,4.14a.3.3,0,0,1,0,.23A2.3,2.3,0,0,1,52.68,19Z"/><path class="cls-1" d="M43.17,108.14a5.1,5.1,0,0,1-6.37,2.7l-1.29-.46-1.25-.46-2.48-1c-1.64-.65-3.28-1.31-4.91-2-3.27-1.4-6.51-2.88-9.73-4.55-1.62-.84-3.22-1.73-4.83-2.7a51.74,51.74,0,0,1-4.83-3.25c-.8-.62-1.61-1.29-2.43-2a21.33,21.33,0,0,1-2.45-2.7,14.82,14.82,0,0,1-1.19-1.85c-.19-.35-.37-.73-.55-1.14C.78,88.55.68,88.26.59,88s-.16-.52-.22-.76A12.33,12.33,0,0,1,0,84.53,17.15,17.15,0,0,1,.11,82.3a23.3,23.3,0,0,1,.75-3.59c.32-1.08.67-2.08,1-3a57.11,57.11,0,0,1,2.45-5.33C6.08,67,8,63.9,9.93,60.88s4-5.94,6.09-8.81q1.57-2.15,3.19-4.25c.54-.71,1.08-1.41,1.64-2.11l.83-1.05.42-.53.45-.56a7.58,7.58,0,0,1,11.77,9.55c-.07.08-.13.16-.2.23l-.07.08-.79.89-.81.93c-.55.63-1.09,1.27-1.63,1.9-1.07,1.27-2.13,2.56-3.18,3.85-2.1,2.59-4.14,5.21-6.07,7.86-1,1.33-1.9,2.67-2.8,4s-1.76,2.68-2.55,4a44.5,44.5,0,0,0-2.09,3.93c-.29.64-.55,1.25-.75,1.81-.14.39-.25.76-.33,1.07A3.34,3.34,0,0,0,13,84a2,2,0,0,0-.05.27s0,0,0,.06a8.19,8.19,0,0,0,.92,1.15,19.08,19.08,0,0,0,1.43,1.38,40.56,40.56,0,0,0,3.56,2.74c1.28.9,2.64,1.76,4,2.61,2.78,1.69,5.7,3.28,8.66,4.8q2.23,1.14,4.49,2.22c.76.37,1.52.72,2.27,1.07l1.14.52,1.1.5.12,0A5.1,5.1,0,0,1,43.17,108.14Z"/><path class="cls-4" d="M13.05,83.69A3.34,3.34,0,0,0,13,84a2,2,0,0,0-.05.27,12.73,12.73,0,0,0-5.41.87.35.35,0,0,1-.14,0A.3.3,0,0,1,7.09,85a.31.31,0,0,1,.15-.41,11.52,11.52,0,0,1,4.23-.93c.4,0,.76,0,1.08,0Z"/><path class="cls-4" d="M12.44,84.3a.37.37,0,0,1-.19-.07,16.84,16.84,0,0,0-2.93-1.66A.31.31,0,1,1,9.57,82a17.89,17.89,0,0,1,3.07,1.74.32.32,0,0,1,0,.44A.3.3,0,0,1,12.44,84.3Z"/><path class="cls-1" d="M37.44,103.7a6.66,6.66,0,0,1,2.89-1.19,13.06,13.06,0,0,1,5,0c1.91.51,7.48,2.31,8.24,3.76s-4.15.28-5.17.06a3.9,3.9,0,0,0-1.78,0s11.08,3.58,11.55,4.8-6-.18-7.63-.54c0,0,8.19,3.16,8.25,4,.11,1.75-9.09-1.5-9.09-1.5s6.76,3,6.24,4.11-7.8-2.09-7.8-2.09,4.13,2.61,4.1,3.76-9.09-3.65-10.4-4.55-5-3.06-6.51-4.52C34.31,108.9,35.43,105.5,37.44,103.7Z"/><path class="cls-3" d="M41.44,102s-1.3,5.7-4.51,9.1a3.28,3.28,0,0,1-2.31-1,21.9,21.9,0,0,0,4.63-9.33A3.11,3.11,0,0,1,41.44,102Z"/><path class="cls-3" d="M35.77,104.69a3.2,3.2,0,1,0,4.29-1.43A3.21,3.21,0,0,0,35.77,104.69Z"/><path class="cls-7" d="M37.61,108.18a2.3,2.3,0,1,0-1-3.09A2.32,2.32,0,0,0,37.61,108.18Z"/><path class="cls-5" d="M33.25,39s-6.13-2.06-10.7,1.89S10.91,55.19,10.91,55.19s10.41,9.85,17.24,11c0,0,7.59-11.1,9.4-15.79C40.56,42.55,33.25,39,33.25,39Z"/><path class="cls-6" d="M32.4,54.91c-.08.16-.77,1.44-1.78,3.22-.14.27-.3.54-.46.82A94.11,94.11,0,0,1,23.23,69.8l0-.89s0,0,0-.07A109,109,0,0,0,29.7,58.62l0,0c1.28-2.25,2.17-3.9,2.19-3.94a.28.28,0,0,1,.38-.12A.29.29,0,0,1,32.4,54.91Z"/><path class="cls-6" d="M30,59l.12,0,3.47-1.54a.28.28,0,0,0,.15-.37.29.29,0,0,0-.37-.14l-3.48,1.54a.28.28,0,0,0-.14.37A.32.32,0,0,0,30,59Z"/><path class="cls-8" d="M20.86,266c0-3.28,19.41-5.94,43.35-5.94s43.34,2.66,43.34,5.94"/><polygon class="cls-1" points="67.22 243.89 68.3 251.96 77.16 251.96 76.82 243.65 67.22 243.89"/><path class="cls-9" d="M65.07,264.1c-.21-2.84.69-7.36,1.14-10.21.05-.34.1-.65.13-.93a10.2,10.2,0,0,0,.1-1.17,1.71,1.71,0,0,1,2.06-1.92c3.39,3.32,7.23-1.67,9.48,0,0,0,1,.69,3.62,3.09s7.19,4,11,5.58c5,2.08,6.39,4.16,6.66,5.59"/><path class="cls-7" d="M78.48,251.26s.6-1.46,1.93-1,1.19,2.66,1.19,2.66S80.8,254.92,78.48,251.26Z"/><path class="cls-7" d="M78.07,257.85a.56.56,0,0,1-.56-.55,7.11,7.11,0,0,1,2.17-5.21.56.56,0,0,1,.78.07.55.55,0,0,1-.06.78,5.88,5.88,0,0,0-1.78,4.36A.55.55,0,0,1,78.07,257.85Z"/><path class="cls-7" d="M85,253.51a.5.5,0,0,1-.36-.14c-.71-.62-2.77-.74-3.9-.66a.56.56,0,0,1-.59-.52.57.57,0,0,1,.52-.59c.35,0,3.43-.18,4.7,1a.55.55,0,0,1,0,.78A.58.58,0,0,1,85,253.51Z"/><path class="cls-7" d="M80.46,251.37l-.31-.3c-.17-.16-.41-.37-.69-.6l-.18-.14A12.48,12.48,0,0,0,77,248.87a4.84,4.84,0,0,0-2-.52h0a2.32,2.32,0,0,0-1.73.74,1.69,1.69,0,0,0-.44,1.68l0,.11a2.44,2.44,0,0,0,.81,1.08,5.39,5.39,0,0,0,2.64,1,21.09,21.09,0,0,0,2.45.2H79a7.07,7.07,0,0,0,1.07-.06l.12,0L79.93,252v0h0l.29-.28Zm-3.31.51-.69-.08c-1.46-.2-2.3-.81-2.48-1.32l0-.1a.56.56,0,0,1,.17-.47,1.16,1.16,0,0,1,.88-.36h0a2.45,2.45,0,0,1,.78.13,6.86,6.86,0,0,1,1.28.58,15,15,0,0,1,1.4,1h0c.35.27.65.53.89.75H79A16.42,16.42,0,0,1,77.15,251.88Z"/><path class="cls-7" d="M81.08,252.58l-.51-1.08c1.1-.52,2.15-1.89,2.08-2.72,0-.2-.1-.45-.62-.6a.69.69,0,0,0-.65.07c-.58.45-.76,2-.74,2.81l-1.2,0c0-.28,0-2.82,1.2-3.78a2.08,2.08,0,0,1,3.21,1.37C84,250.15,82.48,251.92,81.08,252.58Z"/><path class="cls-10" d="M67.93,266a7.31,7.31,0,0,0,1.8-5.37,9.42,9.42,0,0,0-3.52-6.7c.05-.34.1-.65.13-.93a10.26,10.26,0,0,1,4.19,7.59,8.12,8.12,0,0,1-1.6,5.41"/><path class="cls-7" d="M81,254.9a.55.55,0,0,1-.53-.42.57.57,0,0,1,.4-.67l2.1-.52a.56.56,0,0,1,.26,1.08l-2.09.52Z"/><path class="cls-7" d="M83.13,256.12a.56.56,0,0,1-.54-.42A.55.55,0,0,1,83,255l2.09-.52a.55.55,0,1,1,.27,1.07l-2.1.52Z"/><path class="cls-7" d="M85.22,257.29a.55.55,0,0,1-.13-1.09l2.09-.52a.56.56,0,0,1,.67.4.54.54,0,0,1-.4.67l-2.09.52Z"/><path class="cls-7" d="M87.5,258.37A.55.55,0,0,1,87,258a.57.57,0,0,1,.4-.67l2.1-.52a.56.56,0,0,1,.26,1.08l-2.09.52Z"/><path class="cls-7" d="M90,259.29a.55.55,0,0,1-.13-1.08l2.09-.52a.54.54,0,0,1,.67.4.57.57,0,0,1-.4.67l-2.1.52Z"/><path class="cls-3" d="M78.6,124.65c2.51,24.42,3.51,47.45,3.6,63.65v0l-.07,1.12-3.63,54.78-12.76.39s-4.4-42.22-2.77-52.53l-7.1-61.29"/><path class="cls-2" d="M82.19,188.32l-.07,1.12a13.17,13.17,0,0,1-2.66.24,22.67,22.67,0,0,1-4-.37.55.55,0,1,1,.21-1.07A18.81,18.81,0,0,0,82.19,188.32Z"/><path class="cls-2" d="M58,131.58l7.65,58.36c-.24,1.32-2.82,16.84,1.57,52.45a.53.53,0,0,0,.52.46h.07a.53.53,0,0,0,.46-.59c-4.54-36.89-1.59-52-1.56-52.19a.54.54,0,0,0,0-.18l-7.65-58.44"/><path class="cls-2" d="M55,187.53v1.09a14.78,14.78,0,0,1-1.5.07,28.64,28.64,0,0,1-5.45-.59.54.54,0,1,1,.23-1.06A26.25,26.25,0,0,0,55,187.53Z"/><path class="cls-11" d="M36.86,264a10,10,0,0,1,3.56-7.39c3.78-2.92,2.32-2.31,3.09-3.64.09-.15.77-2.41.84-2.56.65-1.38,1.25-2,4.83-2,4.74,0,5.16,2.31,5.66,3.52a21.53,21.53,0,0,1,.79,2.82c.12.5.24,1,.36,1.59.29,1.37.56,2.81.75,4a19.91,19.91,0,0,1,.22,3.51"/><path class="cls-10" d="M56.92,265a5.57,5.57,0,0,1-2.07-2.69c-1.24-3.36.66-7.4.74-7.57l0,0c.12.5.24,1,.36,1.59a9.07,9.07,0,0,0-.25,5.64A4.64,4.64,0,0,0,57,263.81"/><path class="cls-7" d="M47.54,249.67s-.93-.44-1,.84c-.06,1,.68,1.25,1,1.08a.86.86,0,0,0,.95-.32C48.78,250.77,48.57,249.16,47.54,249.67Z"/><path class="cls-7" d="M43.46,253.16a.54.54,0,0,1-.34-.12.57.57,0,0,1-.12-.79,4.89,4.89,0,0,1,4.68-1.87.58.58,0,0,1,.45.67.57.57,0,0,1-.67.45,3.71,3.71,0,0,0-3.54,1.43A.59.59,0,0,1,43.46,253.16Z"/><path class="cls-7" d="M52.18,253.73a.58.58,0,0,1-.52-.33c-.92-2-4.14-2.52-4.17-2.53a.56.56,0,0,1-.48-.64.57.57,0,0,1,.64-.49c.16,0,3.87.6,5.05,3.19a.57.57,0,0,1-.28.75A.69.69,0,0,1,52.18,253.73Z"/><path class="cls-7" d="M49.83,254.64l-.14,0a10,10,0,0,0-4.63-.1.57.57,0,1,1-.3-1.09,10.79,10.79,0,0,1,5.22.09.57.57,0,0,1,.4.69A.56.56,0,0,1,49.83,254.64Z"/><path class="cls-7" d="M49,256.44a.32.32,0,0,1-.14,0,9.91,9.91,0,0,0-4.63-.09.57.57,0,1,1-.3-1.1,10.89,10.89,0,0,1,5.21.09.56.56,0,0,1,.41.69A.57.57,0,0,1,49,256.44Z"/><path class="cls-7" d="M48,258.49a.39.39,0,0,1-.15,0,9.93,9.93,0,0,0-4.63-.09.57.57,0,0,1-.3-1.1,11,11,0,0,1,5.22.09.57.57,0,0,1-.14,1.12Z"/><path class="cls-12" d="M37.29,141.15a6.77,6.77,0,0,0,3.09-1c7.33-4.33,5.36-15.88,4.88-20,0-.33-.92-.12-1.25-.07s-.06-.33,0,0,2.36,15.13-4.26,19a4.74,4.74,0,0,1-5,.18c-2-1.17-3.19-3.78-3.09-6.65a.62.62,0,0,0-1.23,0c-.11,3.31,1.34,6.36,3.69,7.75A5.6,5.6,0,0,0,37.29,141.15Z"/><ellipse class="cls-8" cx="64.21" cy="265.34" rx="43.35" ry="5.94"/><path class="cls-11" d="M78,249.21s1,.69,3.62,3.09,7.19,4,11,5.58c5,2.08,6.39,4.16,6.66,5.59a2.62,2.62,0,0,1-.27,1.86H65.51a4.58,4.58,0,0,1-.44-1.86c-.21-2.84.69-7.36,1.14-10.21.05-.34.1-.65.13-.93a10.2,10.2,0,0,0,.1-1.17,1.71,1.71,0,0,1,2.06-1.92"/><path class="cls-11" d="M68.5,249.24c3.39,3.32,7.23-1.67,9.48,0"/><path class="cls-13" d="M99,265.33H65.51a4.58,4.58,0,0,1-.44-1.86H99.3A2.62,2.62,0,0,1,99,265.33Z"/><path class="cls-7" d="M80.41,249.63c1.33.47,1.19,2.66,1.19,2.66s-.8,2-3.12-1.66c0,0,.6-1.46,1.93-1"/><path class="cls-7" d="M78.07,257.22a.56.56,0,0,1-.56-.55,7.11,7.11,0,0,1,2.17-5.21.56.56,0,0,1,.78.07.55.55,0,0,1-.06.78,5.88,5.88,0,0,0-1.78,4.36A.55.55,0,0,1,78.07,257.22Z"/><path class="cls-7" d="M85,252.88a.5.5,0,0,1-.36-.14c-.71-.62-2.77-.74-3.9-.66a.56.56,0,0,1-.59-.52.57.57,0,0,1,.52-.59c.35,0,3.43-.18,4.7.95a.55.55,0,0,1,0,.78A.58.58,0,0,1,85,252.88Z"/><path class="cls-7" d="M73.26,248.46a1.69,1.69,0,0,0-.44,1.68l0,.11a2.44,2.44,0,0,0,.81,1.08,5.39,5.39,0,0,0,2.64,1,21.09,21.09,0,0,0,2.45.2H79A7.07,7.07,0,0,0,80,252.5l.12,0-.23-1.14v0h0l.29-.28.28-.29-.31-.3c-.17-.16-.41-.37-.69-.6"/><path class="cls-7" d="M77.09,249.64a13.25,13.25,0,0,1,1.4,1h0c.35.27.65.53.89.75H79a16.42,16.42,0,0,1-1.83-.12l-.69-.08c-1.46-.2-2.3-.81-2.48-1.32"/><path class="cls-7" d="M83.85,248.05c.12,1.47-1.37,3.24-2.77,3.9l-.51-1.08c1.1-.52,2.15-1.89,2.08-2.72"/><path class="cls-7" d="M81.38,247.62c-.58.45-.76,2-.74,2.81l-1.2,0c0-.28,0-2.82,1.2-3.78"/><path class="cls-13" d="M68.93,265.33h-1a7.31,7.31,0,0,0,1.8-5.37,9.42,9.42,0,0,0-3.52-6.7c.05-.34.1-.65.13-.93a10.26,10.26,0,0,1,4.19,7.59A8.12,8.12,0,0,1,68.93,265.33Z"/><path class="cls-7" d="M81,254.27a.55.55,0,0,1-.53-.42.57.57,0,0,1,.4-.67l2.1-.52a.56.56,0,0,1,.26,1.08l-2.09.52Z"/><path class="cls-7" d="M83.13,255.49a.56.56,0,0,1-.54-.42.55.55,0,0,1,.41-.67l2.09-.52a.55.55,0,1,1,.27,1.07l-2.1.52Z"/><path class="cls-7" d="M85.22,256.66a.55.55,0,0,1-.13-1.09l2.09-.52a.56.56,0,0,1,.67.4.54.54,0,0,1-.4.67l-2.09.52Z"/><path class="cls-7" d="M87.5,257.74a.55.55,0,0,1-.53-.42.57.57,0,0,1,.4-.67l2.1-.52a.56.56,0,0,1,.26,1.08l-2.09.52Z"/><path class="cls-7" d="M90,258.66a.55.55,0,0,1-.13-1.08l2.09-.52a.54.54,0,0,1,.67.4.56.56,0,0,1-.4.67l-2.1.52Z"/><path class="cls-11" d="M49.18,247.78c4.74,0,5.16,2.31,5.66,3.52a21.53,21.53,0,0,1,.79,2.82c.12.5.24,1,.36,1.59.29,1.37.56,2.81.75,4a20,20,0,0,1,.22,3.51v.23c0,.36,0,.68,0,.95,0,.6-.08,1-.08,1h-20a10.7,10.7,0,0,1,0-1.92A10,10,0,0,1,40.42,256c3.78-2.92,2.32-2.31,3.09-3.64.09-.15.77-2.41.84-2.56"/><path class="cls-13" d="M57,263.18v.23c0,.36,0,.68,0,.95a5.57,5.57,0,0,1-2.07-2.69c-1.24-3.36.66-7.4.74-7.57l0,0c.12.5.24,1,.36,1.59a9.07,9.07,0,0,0-.25,5.64A4.64,4.64,0,0,0,57,263.18Z"/><path class="cls-13" d="M57,263.41c0,1.14-.12,1.92-.12,1.92h-20a10.7,10.7,0,0,1,0-1.92Z"/><path class="cls-7" d="M45.38,249.92c.55.3,1,.52,1.27.65l.19.09a.69.69,0,0,0,.24.05.57.57,0,0,0,.38-.15.64.64,0,0,0,.1-.13.56.56,0,0,0,.07-.16.65.65,0,0,0,0-.31,1.62,1.62,0,0,1-.06-.17"/><path class="cls-7" d="M47.56,249.79a1.62,1.62,0,0,1-.06.17.67.67,0,0,0,0,.28.64.64,0,0,0,.08.19.45.45,0,0,0,.11.13.55.55,0,0,0,.31.14H48a.69.69,0,0,0,.24-.05l.24-.11.07,0c.31-.15.79-.39,1.34-.71"/><path class="cls-7" d="M46.54,249.88c-.06,1,.68,1.25,1,1.08a.86.86,0,0,0,.95-.32c.31-.5.1-2.11-.93-1.6"/><path class="cls-7" d="M47.68,249.75a.58.58,0,0,1,.45.67.57.57,0,0,1-.67.45,3.71,3.71,0,0,0-3.54,1.43.59.59,0,0,1-.46.23.54.54,0,0,1-.34-.12.57.57,0,0,1-.12-.79,4.89,4.89,0,0,1,4.68-1.87"/><path class="cls-7" d="M47.65,249.11c.16,0,3.87.6,5.05,3.19a.57.57,0,0,1-.28.75.69.69,0,0,1-.24,0,.58.58,0,0,1-.52-.33c-.92-2-4.14-2.52-4.17-2.53a.56.56,0,0,1-.48-.64"/><path class="cls-7" d="M49.83,254l-.14,0a10,10,0,0,0-4.63-.1.57.57,0,1,1-.3-1.09,10.79,10.79,0,0,1,5.22.09.57.57,0,0,1,.4.69A.56.56,0,0,1,49.83,254Z"/><path class="cls-7" d="M49,255.81a.32.32,0,0,1-.14,0,9.91,9.91,0,0,0-4.63-.09.57.57,0,1,1-.3-1.1,10.89,10.89,0,0,1,5.21.09.56.56,0,0,1,.41.69A.57.57,0,0,1,49,255.81Z"/><path class="cls-7" d="M48,257.86a.39.39,0,0,1-.15,0,9.93,9.93,0,0,0-4.63-.09.57.57,0,0,1-.3-1.1,11,11,0,0,1,5.22.09.57.57,0,0,1-.14,1.12Z"/></g></g></svg>