<svg xmlns="http://www.w3.org/2000/svg" viewBox="0 0 190.59 445.71"><defs><style>.cls-1{fill:#e5cfc7;}.cls-2{fill:#ff8c64;}.cls-3{fill:#ed6224;}.cls-4{fill:#ee2a23;}.cls-5{fill:#fff;}.cls-6{fill:#35252f;}.cls-7{fill:#634e5d;}.cls-8{fill:#f79c00;}.cls-9{fill:#5942ff;}.cls-10{fill:#3935b1;}.cls-11{fill:#ea6a4f;}</style></defs><g id="Слой_2" data-name="Слой 2"><g id="OBJECTS"><ellipse class="cls-1" cx="104.97" cy="436.66" rx="85.63" ry="9.05"/><path class="cls-1" d="M110.31,66.9S59.93,16.13,21.51,50.67c-38.81,34.9,28.72,107.93,14,167s-49.87,116.69-16.2,151.25C80.51,431.67,181,351,137.92,226.22,121,177.26,145.67,105.73,110.31,66.9Z"/><path class="cls-1" d="M24.34,188.87h0a1,1,0,0,1-1-1c.61-14.55-6-38.64-12.32-62C6.89,110.75,3,96.45.86,84.42-2,68.05,3,55.9,7.69,48.58A45.76,45.76,0,0,1,18.77,36.47a1,1,0,1,1,1.14,1.65A44.37,44.37,0,0,0,9.32,49.73c-4.49,7-9.27,18.65-6.5,34.34C4.94,96,8.83,110.26,13,125.36c6.39,23.45,13,47.7,12.39,62.55A1,1,0,0,1,24.34,188.87Z"/><path class="cls-1" d="M137.92,355.08a1,1,0,0,1-.54-.15,1,1,0,0,1-.31-1.38c20-31.63,19.75-69.47,16-95.64A221.64,221.64,0,0,0,140,208.13a1,1,0,1,1,1.84-.78A224.07,224.07,0,0,1,155,257.62a178.8,178.8,0,0,1,.82,47.68c-2.35,18.52-8.11,35.11-17.1,49.32A1,1,0,0,1,137.92,355.08Z"/><polygon class="cls-2" points="72.47 402.49 73.9 413.82 88.36 413.82 89.19 401.89 72.47 402.49"/><polygon class="cls-2" points="111.12 400.65 112.88 413.82 127.33 413.82 126.78 400.26 111.12 400.65"/><path class="cls-3" d="M163,436.66H108.33a7.59,7.59,0,0,1-.72-3c-.34-4.62,1.13-12,1.86-16.66.09-.54.16-1,.22-1.51a16.22,16.22,0,0,0,.16-1.9c0-3.8,3.36-3.15,3.36-3.15,5.54,5.43,11.8-2.71,15.46,0,0,0,1.58,1.13,5.92,5s11.72,6.49,18,9.12c8.11,3.39,10.41,6.78,10.86,9.11A4.31,4.31,0,0,1,163,436.66Z"/><path class="cls-4" d="M163,436.66H108.33a7.59,7.59,0,0,1-.72-3h55.85A4.31,4.31,0,0,1,163,436.66Z"/><path class="cls-5" d="M129.49,412.68s1-2.39,3.14-1.63,2,4.34,2,4.34S133.28,418.65,129.49,412.68Z"/><path class="cls-5" d="M128.82,423.43a.9.9,0,0,1-.9-.9,11.46,11.46,0,0,1,3.54-8.49.9.9,0,1,1,1.16,1.37,9.72,9.72,0,0,0-2.9,7.12A.9.9,0,0,1,128.82,423.43Z"/><path class="cls-5" d="M140.18,416.35a.87.87,0,0,1-.6-.23c-1.14-1-4.5-1.2-6.35-1.08a.9.9,0,1,1-.12-1.8c.57,0,5.6-.3,7.67,1.54a.9.9,0,0,1,.08,1.27A.91.91,0,0,1,140.18,416.35Z"/><path class="cls-5" d="M130.3,415.83a32.77,32.77,0,0,1-4.36-.34c-2.86-.39-5-1.71-5.63-3.44a2.8,2.8,0,0,1,.66-2.92,3.8,3.8,0,0,1,2.82-1.2h.08c3.77,0,8.34,4.42,8.86,4.92l-.93.94h0l.39,1.92A10.63,10.63,0,0,1,130.3,415.83Zm-6.43-5.95h-.05a1.91,1.91,0,0,0-1.44.6.85.85,0,0,0-.23.93c.3.83,1.66,1.82,4,2.15a26.77,26.77,0,0,0,4.75.3C129.44,412.47,126.16,409.88,123.87,409.88Z"/><path class="cls-5" d="M133.73,414.84l-.84-1.77c1.8-.85,3.52-3.09,3.41-4.44,0-.33-.17-.73-1-1a1.1,1.1,0,0,0-1.07.12c-.94.73-1.24,3.2-1.2,4.58l-2,0c0-.46-.06-4.6,2-6.17a3.39,3.39,0,0,1,5.23,2.24C138.44,410.87,136,413.75,133.73,414.84Z"/><path class="cls-4" d="M113.91,436.66h-1.62a12,12,0,0,0,2.93-8.76A15.42,15.42,0,0,0,109.47,417c.09-.54.16-1,.22-1.51a16.75,16.75,0,0,1,6.84,12.39A13.28,13.28,0,0,1,113.91,436.66Z"/><path class="cls-5" d="M133.66,418.62a.9.9,0,0,1-.22-1.78l3.42-.84a.9.9,0,1,1,.43,1.75l-3.41.84A.83.83,0,0,1,133.66,418.62Z"/><path class="cls-5" d="M137.08,420.61a.9.9,0,0,1-.22-1.78l3.42-.85a.9.9,0,0,1,.43,1.75l-3.42.85A.76.76,0,0,1,137.08,420.61Z"/><path class="cls-5" d="M140.49,422.51a.9.9,0,0,1-.21-1.77l3.41-.85a.9.9,0,0,1,.44,1.75l-3.42.85A.82.82,0,0,1,140.49,422.51Z"/><path class="cls-5" d="M144.22,424.28a.9.9,0,0,1-.88-.68.91.91,0,0,1,.66-1.1l3.42-.84a.9.9,0,1,1,.43,1.74l-3.42.85Z"/><path class="cls-5" d="M148.25,425.78a.9.9,0,0,1-.87-.68A.9.9,0,0,1,148,424l3.41-.85a.9.9,0,1,1,.44,1.75l-3.42.85A.78.78,0,0,1,148.25,425.78Z"/><path class="cls-6" d="M50,207.65c.14.57.29,1.13.46,1.67l0,.07c.23.73.48,1.44.75,2.12,2.45,6,21.38,6.87,40,4.79,14.45-1.62,28.73-5,35-9.21,5.89-3.93-6.65-40.19-6.65-40.19L48.91,181.74S47.32,196.82,50,207.65Z"/><path class="cls-6" d="M135.56,310l-6.05,91.24-20.82.64s-7.18-68.89-4.51-85.71l-11.58-100-.28-2.35,26.74-12.31,1.66-.77,6.81-3.13c.06.55.12,1.09.17,1.64.22,2.05.44,4.1.65,6.13.06.61.12,1.22.19,1.83,4,38.64,6.71,74.16,7,100.37,0,.61,0,1.23,0,1.83C135.55,309.57,135.56,309.76,135.56,310Z"/><path class="cls-7" d="M135.55,309.38a25.57,25.57,0,0,1-6,.65,35,35,0,0,1-6.28-.56.89.89,0,0,1,.34-1.75c.09,0,6.55,1.26,11.91-.17C135.54,308.16,135.55,308.78,135.55,309.38Z"/><path class="cls-7" d="M112,399h.11a.86.86,0,0,0,.75-1c-7.4-60.17-2.6-84.91-2.55-85.15a.88.88,0,0,0,0-.28L97.84,217.21a.88.88,0,0,0-1-.75.86.86,0,0,0-.74,1l12.47,95.21c-.39,2.16-4.59,27.47,2.56,85.56A.86.86,0,0,0,112,399Z"/><path class="cls-7" d="M111.54,185.89c.08.45,1.79,9.31,7.52,15.59a20.08,20.08,0,0,0,4,3.4,17.44,17.44,0,0,0,3.69,1.79,14.46,14.46,0,0,0,1.82.51c-.07-.61-.13-1.22-.2-1.83-.29-.08-.58-.16-.86-.26a14.85,14.85,0,0,1-3.51-1.67,18.06,18.06,0,0,1-3.25-2.71c-5.71-6-7.45-15-7.47-15.13a.88.88,0,0,0-1-.7A.86.86,0,0,0,111.54,185.89Z"/><path class="cls-7" d="M99.11,212.54a.7.7,0,0,1-.68.73h0a.71.71,0,0,1-.75-.66c-.13-2.61-.28-5.29-.45-8l-.09-1.41c-.57-8.74-1.29-17.31-1.84-23.37,0-.49-.08-1-.13-1.42-.12-1.33-.23-2.51-.32-3.51l1.43-.23c.09,1,.2,2.19.33,3.53,0,.46.08.93.13,1.42.54,6,1.25,14.51,1.82,23.19,0,.48.06,1,.1,1.44C98.82,207.06,99,209.83,99.11,212.54Z"/><path class="cls-7" d="M101.17,203.32a19.05,19.05,0,0,1-2.52,1,12.45,12.45,0,0,1-1.43.36,9,9,0,0,1-1.37.18,4.93,4.93,0,0,1-2.42-.38,3,3,0,0,1-1.65-2.21c-.52-2.69-1.63-13.82-2.37-21.69,0-.49-.09-1-.14-1.42-.11-1.26-.22-2.4-.31-3.38l1.44-.18c.09,1,.2,2.14.32,3.42,0,.45.08.93.13,1.41.74,7.86,1.84,19,2.35,21.58a1.55,1.55,0,0,0,.87,1.22,5.08,5.08,0,0,0,3.06,0,12.88,12.88,0,0,0,1.42-.39,16.58,16.58,0,0,0,2-.77.74.74,0,0,1,1,.31A.69.69,0,0,1,101.17,203.32Z"/><path class="cls-6" d="M91.26,204.81V399.37L91,402.46H69.58c-1.13-6.94-9.2-35-10.32-58.41-1.21-25.19-.87-57.82-.87-57.82-2.33-17.81-5.92-55.36-7.92-76.84v-.07c-.06-.57-.11-1.13-.16-1.67C49.52,199,49,193.41,49,193.41c3.33-1.38,9.26-.52,15.64,1.23l1.7.48A198,198,0,0,1,91.26,204.81Z"/><path class="cls-7" d="M91.26,303.51v1.83a24.6,24.6,0,0,1-5.16.51,38.57,38.57,0,0,1-9.88-1.38.89.89,0,0,1,.51-1.71C76.82,302.78,84.68,305.07,91.26,303.51Z"/><path class="cls-7" d="M71.93,401.52l.16,0a.86.86,0,0,0,.69-1c-.06-.31-5.93-30.76-8.47-48S63,286.93,63,286.45c0-.05,0-.09,0-.13-1.9-16.18-5.8-72-5.83-72.59a.88.88,0,0,0-.93-.8.86.86,0,0,0-.8.92c0,.56,3.92,56.31,5.83,72.61,0,2-1.22,49.22,1.29,66.28C65.14,370,71,400.51,71.08,400.82A.87.87,0,0,0,71.93,401.52Z"/><path class="cls-3" d="M94.39,433.15v.38c0,.58,0,1.1-.07,1.55-.06,1-.13,1.58-.13,1.58H61.62a17.69,17.69,0,0,1,0-3.13c.21-3.33,1.31-8.58,5.81-12.06,6.16-4.76,3.78-3.76,5-5.93.14-.25,1.25-3.93,1.36-4.19,1.06-2.25,2-3.31,7.87-3.31,7.74,0,8.42,3.75,9.25,5.73a36.65,36.65,0,0,1,1.29,4.6c.19.82.39,1.7.58,2.59.48,2.25.92,4.59,1.23,6.46A33.49,33.49,0,0,1,94.39,433.15Z"/><path class="cls-4" d="M94.39,433.15v.38c0,.58,0,1.1-.07,1.55a9.16,9.16,0,0,1-3.38-4.39c-2-5.49,1.08-12.08,1.21-12.36l.07,0c.19.82.39,1.7.58,2.59-.73,2.24-1.58,6-.41,9.2A7.62,7.62,0,0,0,94.39,433.15Z"/><path class="cls-4" d="M94.39,433.53c0,1.86-.2,3.13-.2,3.13H61.62a17.69,17.69,0,0,1,0-3.13Z"/><path class="cls-5" d="M78.26,412.8a1,1,0,0,1-.38-.08c-.83-.37-8.09-3.75-8.66-7.28a2.93,2.93,0,0,1,1-2.71A2.73,2.73,0,0,1,72.9,402c3.29.87,5.78,8.15,6.24,9.6a1,1,0,0,1-.26,1A1,1,0,0,1,78.26,412.8Zm-6.05-9a1,1,0,0,0-.7.34,1.09,1.09,0,0,0-.45,1c.24,1.49,3,3.45,5.52,4.84-1.15-2.83-2.81-5.85-4.16-6.2A.66.66,0,0,0,72.21,403.76Z"/><path class="cls-5" d="M79.84,412.8a.93.93,0,0,1-.89-1.21c.47-1.45,3-8.73,6.25-9.6a2.73,2.73,0,0,1,2.64.74,2.9,2.9,0,0,1,1,2.71c-.56,3.53-7.82,6.91-8.65,7.28A1,1,0,0,1,79.84,412.8Zm6-9a.76.76,0,0,0-.21,0c-1.34.35-3,3.37-4.16,6.2,2.52-1.39,5.29-3.35,5.53-4.84a1.08,1.08,0,0,0-.46-1A1,1,0,0,0,85.88,403.76Z"/><path class="cls-5" d="M79,410.09s-1.52-.72-1.63,1.36c-.1,1.69,1.1,2.05,1.59,1.77a1.41,1.41,0,0,0,1.55-.52C81,411.87,80.7,409.26,79,410.09Z"/><path class="cls-5" d="M72.36,415.77a1,1,0,0,1-.56-.18.94.94,0,0,1-.19-1.3,7.92,7.92,0,0,1,7.64-3,.93.93,0,0,1-.36,1.82,6.08,6.08,0,0,0-5.79,2.33A.93.93,0,0,1,72.36,415.77Z"/><path class="cls-5" d="M86.59,416.71a1,1,0,0,1-.85-.55c-1.5-3.31-6.76-4.11-6.81-4.12a.91.91,0,0,1-.78-1.05.93.93,0,0,1,1-.79c.26,0,6.31,1,8.23,5.19a.92.92,0,0,1-.46,1.23A.85.85,0,0,1,86.59,416.71Z"/><path class="cls-5" d="M82.76,418.19l-.24,0A16.2,16.2,0,0,0,75,418a.93.93,0,1,1-.49-1.79,17.84,17.84,0,0,1,8.51.15.93.93,0,0,1-.23,1.83Z"/><path class="cls-5" d="M81.37,421.13l-.24,0a16.14,16.14,0,0,0-7.55-.15.93.93,0,0,1-.49-1.8,18,18,0,0,1,8.51.15.93.93,0,0,1,.66,1.13A.92.92,0,0,1,81.37,421.13Z"/><path class="cls-5" d="M79.73,424.48a1,1,0,0,1-.24,0,16.23,16.23,0,0,0-7.55-.16.92.92,0,0,1-1.14-.65.94.94,0,0,1,.65-1.14,17.85,17.85,0,0,1,8.51.15.92.92,0,0,1,.67,1.13A.94.94,0,0,1,79.73,424.48Z"/><path class="cls-7" d="M50,207.65c.14.57.29,1.13.46,1.67a.17.17,0,0,0,0,.07h0a14.18,14.18,0,0,0,8.36-2.79c3.8-2.81,6.11-7.29,7.5-11.48a44.74,44.74,0,0,0,2.08-10.58.87.87,0,1,0-1.73-.09,43.41,43.41,0,0,1-2,10.19c-1.3,3.91-3.42,8-6.83,10.57a12.61,12.61,0,0,1-7.51,2.44Z"/><path class="cls-8" d="M60.9,230a11,11,0,0,0,5-1.6c12-7.06,7.39-38.09,7.19-39.41a1,1,0,0,0-2,.31c.05.31,4.59,31-6.22,37.37a7.75,7.75,0,0,1-8.17.3c-3.22-1.91-5.2-6.17-5.05-10.86a1,1,0,0,0-2-.06c-.18,5.41,2.19,10.37,6,12.65A9.18,9.18,0,0,0,60.9,230Z"/><path class="cls-9" d="M125.79,180.82c-14.93,13.94-50.24,21.34-77.45,8.09-3-8.15-6.27-37.27-7.15-46-.18-1.73-.32-3.46-.44-5.2a226.9,226.9,0,0,1,0-25.56l.06-1.43c.36-7.24.89-14.75,1.39-22.72,1-15.77,6.27-25.49,15.41-26.95a37,37,0,0,0,4.75-1l.79-.23c.81-.25,1.57-.52,2.28-.79s1.59-.65,2.28-1l.32-.16.55-.27a28.21,28.21,0,0,0,4.62-2.86h20.4a15.34,15.34,0,0,0,5.34,4.79c.33.18.67.36,1,.52s.53.25.8.36l.84.35c.67.26,1.34.49,2,.71h0c6.46,2.05,13,2.58,14.55,10.17,1.1,5.49-3.1,16.77-2.66,39.64,0,1.68.09,3.42.17,5.22s.19,3.44.32,5.24.28,3.42.46,5.2c.15,1.56.32,3.16.53,4.81s.43,3.4.68,5.18C119,146.44,122.66,168.59,125.79,180.82Z"/><path class="cls-5" d="M85.79,74.53c-12.45,0-15.64-17.28-15.77-18a.75.75,0,1,1,1.47-.26c0,.17,3.11,16.78,14.3,16.78a8,8,0,0,0,6.28-2.6C96,66,95,57.41,95,57.33a.75.75,0,0,1,1.49-.19c0,.38,1.09,9.36-3.27,14.29A9.45,9.45,0,0,1,85.79,74.53Z"/><path class="cls-10" d="M92.77,95.38l16.74-.94s4.41,22-6,22.87C91.35,118.31,92.77,95.38,92.77,95.38Z"/><path class="cls-10" d="M87.32,86.56a25.65,25.65,0,0,1-11-2.79,46.92,46.92,0,0,1-11.53-8.09.52.52,0,0,1,0-.68.43.43,0,0,1,.63,0,46,46,0,0,0,11.31,7.93c8.64,4.13,16.07,3.55,22.09-1.75a.42.42,0,0,1,.62.07.52.52,0,0,1-.07.68,17.73,17.73,0,0,1-11.85,4.65Z"/><path class="cls-10" d="M87.07,78.08c-4.81,0-10.4-4.14-10.71-4.37a.51.51,0,0,1-.11-.67.43.43,0,0,1,.62-.12c.09.07,9.43,7,13.78,2.91a.43.43,0,0,1,.63,0,.51.51,0,0,1,0,.68A5.87,5.87,0,0,1,87.07,78.08Z"/><path class="cls-10" d="M99.81,163.26a31.71,31.71,0,0,1-5.52-.49,45.82,45.82,0,0,1-14.35-5.32,68.33,68.33,0,0,1-14.13-10.52.51.51,0,0,1,0-.68.42.42,0,0,1,.62,0,68,68,0,0,0,14,10.38c7.55,4.2,18.87,8.23,29.9,3.63a.42.42,0,0,1,.57.27.49.49,0,0,1-.25.62A27.7,27.7,0,0,1,99.81,163.26Z"/><path class="cls-6" d="M71.63,35.68s-.41,6.63-2.77,8.85c0,0,4,4.54,8.11,3.29C77,47.82,74.75,37.36,71.63,35.68Z"/><path class="cls-6" d="M108.93,18.67c-.09.61-.21,1.23-.37,1.87h0A21.07,21.07,0,0,1,106,26.38l-.53,0-.53,0L103,26.24S97.81,10.4,89.83,11.46s-11.78,18-11.78,18L68.4,27.93S63.66,16.21,69,7.72C73.45.64,81.59,2.77,81.59,2.77s8.33-5.23,16.52-1.32C103.4,4,110.09,10.07,108.93,18.67Z"/><path class="cls-2" d="M94.1,51V56.2a15,15,0,0,1-1.84,1.29c-9.05,5.44-18.81-1.29-18.81-1.29V38.14L91.64,49.46Z"/><path class="cls-6" d="M94.1,51v4.43C83,53.45,79,46.36,79,46.36l12.69,3.1Z"/><path class="cls-11" d="M100.61,28.16s3-3.49,4.63,0,.39,10.57-4.11,9.41Z"/><path class="cls-2" d="M103.77,40.42s0,10.77-11.19,10.75S73.86,42.4,73.47,42h0l-.12-2.27L72.7,28l-.34-6.28s-1.42-11.3,9.32-13.37c7.86-1.5,15.22-.2,18.93,3.9.12.13.24.26.35.4a9.67,9.67,0,0,1,2.11,5.27l.35,11.28.09,2.76Z"/><path class="cls-6" d="M104.72,26.32,101.27,26s.73-8.32-3.81-12.57c-2.92-2.74-9-2-13-1.05l-.65.15c-1,.24-1.84.48-2.39.65l-.56.18-.2.07s2.16,4.51-1.25,7.91c-2.88,2.88.89,10,.89,10H75.15c-2.57-1.3-3.52-6.69-3.52-6.69S69,17.31,72.3,11.4c1.8-3.21,7.44-5.31,13.36-6l1-.11c4.63-.39,9.3.1,12.32,1.6,2.4,1.19,3.83,3.78,4.67,6.69.23.8.42,1.62.57,2.43A43.86,43.86,0,0,1,104.72,26.32Z"/><ellipse class="cls-11" cx="85.2" cy="30.55" rx="3.61" ry="1.42"/><path class="cls-11" d="M103.51,31.93a8.19,8.19,0,0,1-.87,0c-2,0-3.61-.63-3.61-1.42s1.62-1.42,3.61-1.42c.27,0,.53,0,.78,0Z"/><path class="cls-6" d="M88.61,26.24c0,1.08-.49,2-1.09,2s-1.09-.87-1.09-2,.48-1.95,1.09-1.95S88.61,25.16,88.61,26.24Z"/><path class="cls-6" d="M99.43,26.24c0,1.08-.49,2-1.09,2s-1.09-.87-1.09-2,.49-1.95,1.09-1.95S99.43,25.16,99.43,26.24Z"/><path class="cls-6" d="M95.65,36.89c-3.93,0-7.16-3.38-7.2-3.43a.43.43,0,0,1,0-.62.44.44,0,0,1,.63,0c.21.22,5.21,5.44,10.07,2a.44.44,0,0,1,.62.1.45.45,0,0,1-.1.62A6.84,6.84,0,0,1,95.65,36.89Z"/><path class="cls-6" d="M77,37.63c0,.12-1.47,3.4-3.5,4.37h0l-.12-2.27A7.72,7.72,0,0,0,77,37.63Z"/><path class="cls-2" d="M75,30.15s-4.31-5.79-7.46-1.24c-2.6,3.74,2.31,13.5,7.46,10.16Z"/><path class="cls-6" d="M74.41,37.33a.45.45,0,0,1-.44-.4,7.41,7.41,0,0,0-4.3-6,.45.45,0,0,1,.33-.83,8.32,8.32,0,0,1,4.85,6.7.45.45,0,0,1-.39.49Z"/><path class="cls-6" d="M70.28,34.64a.44.44,0,0,1-.28-.78c.17-.15,1.76-1.4,3.09-1.06a.44.44,0,1,1-.22.86c-.76-.2-1.93.57-2.32.88A.41.41,0,0,1,70.28,34.64Z"/><path class="cls-6" d="M93.87,31.66a.45.45,0,0,1,0-.89,3,3,0,0,0,2.64-1.23C94.75,25.9,93,22.23,93,22.19a.45.45,0,0,1,.21-.59.44.44,0,0,1,.59.21s1.84,3.85,3.64,7.56a.46.46,0,0,1,0,.38A3.8,3.8,0,0,1,93.87,31.66Z"/><path class="cls-2" d="M120.6,112.27a8.42,8.42,0,0,0-10.25-6.06c-3.13.8-6,1.69-8.9,2.61s-5.66,1.88-8.43,2.84q-3.33,1.14-6.61,2.29l-2.23.77c-2.54.89-5.07,1.77-7.6,2.62-5.42,1.84-10.83,3.57-16.14,5-2.65.73-5.28,1.39-7.83,1.91a53.32,53.32,0,0,1-7.23,1c-.53,0-1,0-1.51,0v-.1l.1-.9c.14-1.2.33-2.42.55-3.65.45-2.47,1-5,1.73-7.53s1.51-5.08,2.39-7.64,1.84-5.09,2.85-7.63c.51-1.27,1-2.53,1.58-3.8s1.08-2.52,1.65-3.77,1.13-2.5,1.72-3.73l.87-1.84.44-.89.4-.81.17-.32a10.44,10.44,0,0,0-18.47-9.71l-.62,1.13-.57,1c-.37.69-.73,1.38-1.09,2.07-.7,1.38-1.39,2.76-2,4.15s-1.31,2.8-1.94,4.2-1.22,2.83-1.81,4.26Q30,94.2,28.49,98.64c-1,3-1.94,6-2.74,9.08a92.56,92.56,0,0,0-2,9.54q-.39,2.46-.63,5l-.1,1.28-.08,1.29-.06,1.31v1.43a20.44,20.44,0,0,0,.46,4.47,17.18,17.18,0,0,0,2,5.12,16.34,16.34,0,0,0,3.88,4.41,16.09,16.09,0,0,0,2.25,1.51,18.87,18.87,0,0,0,2.19,1,21.87,21.87,0,0,0,4,1.15,27.19,27.19,0,0,0,3.46.43,40.51,40.51,0,0,0,5.91-.13c1.82-.17,3.54-.43,5.19-.74s3.26-.66,4.82-1c3.13-.77,6.12-1.65,9.06-2.58,4.9-1.57,9.62-3.31,14.27-5.1l1.77-.68.95-.36c5.51-2.18,10.93-4.41,16.28-6.62,2.68-1.1,5.34-2.18,8-3.22s5.23-2,7.7-2.86l.12,0A8.44,8.44,0,0,0,120.6,112.27Z"/><path class="cls-2" d="M136.11,119.9c-.85-5.59-2.24-12-3.72-18C129.46,90,126.16,79.32,126,78.65a10.43,10.43,0,0,0-13.07-6.85A10.1,10.1,0,0,0,110.28,73c.07,1.72.25,3.75.58,6.16,1,7.53.54,18.33.22,23.54.26,1,.53,2.06.79,3.12,1,4,1.94,8.1,2.69,12-1.41,0-3.29,0-5.77-.17-5.62-.37-12.33-1.27-19.44-2.23-14.64-2-29.78-4-41-2.24A10.44,10.44,0,0,0,50,133.94a11.46,11.46,0,0,0,1.65-.13c8.18-1.3,22.39.61,34.92,2.3,10.34,1.39,19.32,2.6,26.75,2.6,8.19,0,14.52-1.46,18.75-5.76A15,15,0,0,0,136.11,119.9Z"/><path class="cls-9" d="M54.4,64S43.91,62.72,38,70.56,24.16,97.38,24.16,97.38s19.91,12.23,31.2,11.76c0,0,8.41-20.27,9.72-28.37C67.28,67.27,54.4,64,54.4,64Z"/><path class="cls-2" d="M50.24,102.83l-2.64,5.22s-2.54-.85-5.89-1.89c-1.36,2.78-3.09,5.44-4.41,8-1.47,2.87-2.89,5.76-4.3,8.66,5.92,2.77,13,5.6,15.9,6.08,5.24.86,7.64-13.67,7.64-13.67S54.19,104.64,50.24,102.83Z"/><path class="cls-9" d="M138.13,99.61s-2.29,1-5.74,2.28c-5.41,1.94-13.7,4.35-20.52,4l-1-.08s.1-1.15.22-3c.32-5.21.8-16-.22-23.54-.33-2.41-.51-4.44-.58-6.16-.35-7.93,1.54-9.06,1.54-9.06a15.66,15.66,0,0,1,14.05,7.19C131.35,79.34,138.13,99.61,138.13,99.61Z"/><path class="cls-11" d="M82.12,135.45l-1.77.68C64.5,132.92,43.75,130,43.51,130a.51.51,0,0,1-.43-.57.52.52,0,0,1,.58-.44C43.9,129,66.06,132.11,82.12,135.45Z"/><path class="cls-11" d="M118.73,117.88a.51.51,0,0,1-.51.46h0c-11.35-1.09-26.93-2.82-34-3.62l2.23-.77c7.72.87,21.54,2.39,31.86,3.38A.51.51,0,0,1,118.73,117.88Z"/><path class="cls-11" d="M113.94,117.29a.53.53,0,0,1-.24-.06.51.51,0,0,1-.21-.69,16.34,16.34,0,0,1,2.93-3.54.5.5,0,0,1,.71,0,.51.51,0,0,1,0,.72,15,15,0,0,0-2.71,3.26A.51.51,0,0,1,113.94,117.29Z"/></g></g></svg>