<svg xmlns="http://www.w3.org/2000/svg" viewBox="0 0 105.66 273.27"><defs><style>.cls-1{fill:#edcfc7;}.cls-2{fill:#ff8c62;}.cls-3{fill:#6040ff;}.cls-4{fill:#ff6a4c;}.cls-5{fill:#ed6224;}.cls-6{fill:#ee2a23;}.cls-7{fill:#fff;}.cls-8{fill:#37202c;}.cls-9{fill:#6a4d5d;}.cls-10{fill:#ff6217;}.cls-11{fill:#ff9c00;}.cls-12{fill:#3832b5;}</style></defs><g id="Слой_2" data-name="Слой 2"><g id="Слой_1-2" data-name="Слой 1"><path class="cls-1" d="M105.63,267.56c2,7.61-88.69,7.61-86.7,0C17,260,107.62,260,105.63,267.56Z"/><path class="cls-2" d="M85.43,94.86C84.5,102.67,81.91,110,79,117.17c-2.59,6.31-12.43,2-9.46-4.22,3.46-8.91,8-19.78,2.54-28.65-2.31-4.86-5.16-10.6-7.59-15.39-2.43-7.71-14.75-18.64-5-25.22,11.75-4.8,12.6,12.88,16.72,19.89C79.13,72.42,87.18,85.28,85.43,94.86Z"/><path class="cls-3" d="M66.79,41.2c2,.27,11.76,19.7,11.1,20.36L64.35,72.12s-8-15.49-6.87-20.15C58.68,46.93,58.16,40.5,66.79,41.2Z"/><path class="cls-4" d="M81.88,87.77c-1.83.36-5.9.31-7.71,1.12-.07-.21-.19-.45-.27-.66C76.08,87.87,80.33,86.26,81.88,87.77Z"/><path class="cls-4" d="M78.22,86a15.31,15.31,0,0,0-3,1.9c-.37.23-.58,1-1.09.75C73.73,87,79.1,84.47,78.22,86Z"/><polygon class="cls-2" points="41.6 246.61 42.48 253.55 51.34 253.55 51.85 246.24 41.6 246.61"/><polygon class="cls-2" points="65.29 245.48 66.37 253.55 75.23 253.55 74.89 245.24 65.29 245.48"/><path class="cls-5" d="M97.1,267.55H63.58c-1.42-4.16.75-9.87.93-14.17a1.71,1.71,0,0,1,2.06-1.92c3.4,3.32,7.24-1.67,9.48,0C80.51,257.86,100.13,261.07,97.1,267.55Z"/><path class="cls-6" d="M97.1,267.55H63.58a4.75,4.75,0,0,1-.44-1.86H97.37A2.62,2.62,0,0,1,97.1,267.55Z"/><path class="cls-7" d="M76.55,252.85c1.32-2.62,3.54.05,3.12,1.67C79.67,254.52,78.88,256.51,76.55,252.85Z"/><path class="cls-7" d="M76.14,259.44a.55.55,0,0,1-.55-.55c-.15-3.82,3.45-7,2.88-4.36a5.93,5.93,0,0,0-1.78,4.36A.55.55,0,0,1,76.14,259.44Z"/><path class="cls-7" d="M83.1,255.1a7.7,7.7,0,0,0-4.26-.8.55.55,0,0,1-.58-.52C77.59,252.41,85.56,253.43,83.1,255.1Z"/><path class="cls-7" d="M78.54,253c-8.26-8.15-11.66,3.23-.31,1.74,0,0-.22-1.14-.23-1.17h0C78.11,253.39,78.39,253.1,78.54,253Zm-3.31.51c-6.33-1-1.81-4.06,1.33-.65h0c.35.27.65.53.89.75A14.09,14.09,0,0,1,75.23,253.47Z"/><path class="cls-7" d="M79.15,254.17l-.51-1.08c4.53-2.49,0-5.91.07-.44l-1.19,0C77.29,244.69,86.26,250.1,79.15,254.17Z"/><path class="cls-6" d="M67,267.55H66c3.3-2.69,1.32-10.48-1.73-12.07,0-.34.1-.65.13-.93C67.53,255.9,70.43,264.25,67,267.55Z"/><path class="cls-7" d="M79.11,256.49c-1.94-.88,1.36-1.48,2-1.61a.56.56,0,0,1,.26,1.08C81.23,256,79.19,256.52,79.11,256.49Z"/><path class="cls-7" d="M81.2,257.71c-1.93-.88,1.36-1.48,2-1.61a.55.55,0,0,1,.27,1.07C83.32,257.18,81.28,257.74,81.2,257.71Z"/><path class="cls-7" d="M83.29,258.88c-1.93-.88,1.36-1.48,2-1.61a.55.55,0,0,1,.26,1.07C85.39,258.36,83.42,258.9,83.29,258.88Z"/><path class="cls-7" d="M85.58,260c-1.94-.88,1.36-1.48,2-1.61a.56.56,0,0,1,.26,1.08C87.7,259.44,85.66,260,85.58,260Z"/><path class="cls-7" d="M88.05,260.88c-1.93-.88,1.36-1.48,2-1.6a.55.55,0,0,1,.27,1.07C90.18,260.36,88.14,260.91,88.05,260.88Z"/><path class="cls-8" d="M27.83,127.18c1.41,11.38,39.43,4.35,46.74-.34,3.61-2.41-4.08-24.64-4.08-24.64l-43.33,9.1S26.18,120.54,27.83,127.18Z"/><path class="cls-8" d="M80.27,189.89,80.19,191l-3.63,54.78-12.76.39c-1.93-21.12-5.52-89.49-10-115.26L75.35,121C78,145.54,80.24,172.89,80.27,189.89Z"/><path class="cls-9" d="M80.27,189.91,80.19,191c-1.55.48-9.35.31-6.46-1.2A18.86,18.86,0,0,0,80.27,189.91Z"/><path class="cls-9" d="M65.84,244.44c-2.74-35-1.77-53.22-1-52.78-.52-.62-6.76-59.22-8.25-59.08s7.65,58.37,7.19,59C64,191.55,60.08,211.07,65.84,244.44Z"/><path class="cls-9" d="M65.55,113.84c-.41,1.52,4.9,13.06,10.42,13l-.12-1.12C67.84,124.38,66.68,110.15,65.55,113.84Z"/><path class="cls-9" d="M57.93,130.17a.44.44,0,0,1-.88.05c-.39-7.78-1.11-16.4-1.74-23.1l.88-.14C56.82,113.7,57.55,122.39,57.93,130.17Z"/><path class="cls-9" d="M59.19,124.52c-1.39.68-5.26,2-5.75-.66-.4-2.1-1.3-11.56-1.73-16.24l.88-.11c.8,5.23.71,14.61,2.25,16.94C55.65,125.39,60.38,122.55,59.19,124.52Z"/><path class="cls-8" d="M53.11,125.44C53,128,53.36,244.09,53,246.59H39.83c-.7-4.26-5.64-21.47-6.33-35.81-.74-15.43-.53-35.44-.53-35.44-1.74-13.38-4.44-42.42-5.75-56.89C32.14,115.85,52.59,125.05,53.11,125.44Z"/><path class="cls-9" d="M53.11,189.12v1.09c-2.27.25-9.63-.24-6.72-1.58A26.36,26.36,0,0,0,53.11,189.12Z"/><path class="cls-9" d="M41.27,246c1.58-.45-3.5-18.81-4.67-30-1.56-10.65-.78-40.13-.79-40.56-1.72-10.59-2.6-44.5-4.14-45-1.46.7,2.35,34.35,3.08,45.08,0,1.23-.75,30.17.79,40.62C37.63,227.37,39.93,245.52,41.27,246Z"/><path class="cls-10" d="M55,265.4c0,.51-.09,2-.12,2.15H35c-.64-8.7,4.66-8.29,6.64-13,1.12-3,.58-4.69,5.66-4.6C54.88,249.46,54.35,260.48,55,265.4Z"/><path class="cls-6" d="M55,265.4c0,.4,0,.85,0,1.18-3.76-1.6-2.07-9.85-1.33-10.26l0,0,.35,1.59C53.35,259.82,52.91,263.65,55,265.4Z"/><path class="cls-6" d="M55,265.63c0,1.14-.11,1.92-.11,1.92H35a10.7,10.7,0,0,1,0-1.92Z"/><path class="cls-7" d="M45.69,252.18c-.1-.31-.22-.64-.35-1h0c-2.16-8.27-9.64-4.32-3.14.18C43.12,251.79,45.58,254,45.69,252.18Zm-2.35-1.43c-5.43-3.31-.87-5.34.78.45Q43.73,251,43.34,250.75Z"/><path class="cls-7" d="M51,246.75c-2.65-2.18-5.57,4-5.28,6C47.72,252.86,53.5,249.25,51,246.75Zm-.49,1.49c-.22,1.09-2.25,2.33-3.39,3C47.67,249.77,49.71,245.64,50.53,248.24Z"/><path class="cls-7" d="M45.62,251.26c-1.28-.69-1.35,2.42,0,1.92C46.79,253.79,47.24,250.67,45.62,251.26Z"/><path class="cls-7" d="M41.53,254.75a.57.57,0,0,1-.45-.91c2-3,7-1.88,4.45-.75C44.9,252.8,43.17,253.23,41.53,254.75Z"/><path class="cls-7" d="M50.25,255.32a.55.55,0,0,1-.51-.33c-.93-2-4.15-2.52-4.18-2.53-2.17-2.09,4-.94,5.21,2.06A.57.57,0,0,1,50.25,255.32Z"/><path class="cls-7" d="M47.91,256.23c-3.28-1-4.67.55-5.48-.51.2-1.3,2.18-1.14,5.62-.61A.57.57,0,0,1,47.91,256.23Z"/><path class="cls-7" d="M47.05,258a10.7,10.7,0,0,0-4.77-.11.57.57,0,0,1-.3-1.1,10.89,10.89,0,0,1,5.21.09A.57.57,0,0,1,47.05,258Z"/><path class="cls-7" d="M46.05,260.08a10.69,10.69,0,0,0-4.77-.11.57.57,0,0,1-.31-1.1,11,11,0,0,1,5.22.09A.57.57,0,0,1,46.05,260.08Z"/><path class="cls-9" d="M27.83,127.18c.09.36.2.71.29,1.06h0c7,.8,12.39-11.85,10.49-15.79a.54.54,0,0,0-.56.5C38.16,116.79,34.7,128.16,27.83,127.18Z"/><path class="cls-11" d="M34.51,140.9c10.69.84,8.76-29.68,6.27-25,0,.19,2.81,19-3.81,22.91-4.49,2.67-8.35-1.69-8.11-6.48C25.79,129.17,28.46,142.16,34.51,140.9Z"/><path class="cls-3" d="M72.59,110.73c-12.72,10.6-32.61,11.89-47.48,5-4.73-22.45-8.42-52.66-.4-74.24,2.91-5.27,11.93-4.19,15.63-8H52.85c3,5,10.65,3.81,13.95,7.75,3.31,6.22-2.17,18.06-.33,31.69A255.19,255.19,0,0,0,72.59,110.73Z"/><path class="cls-12" d="M53.62,55.3l10.25-.79C68.32,73.65,52.35,72.61,53.62,55.3Z"/><path class="cls-7" d="M48,45.1c-4.75,1.5-12.2-12.66-8.82-10.76,2.7,11.93,16.61,14.09,14.41.26C55.29,31.35,56.85,45.61,48,45.1Z"/><path class="cls-12" d="M49,53c-3.3.9-15.42-6.11-13.45-7.1C38.38,49.7,51.21,55.78,56,49.64,57.49,50.89,50.43,53.35,49,53Z"/><path class="cls-12" d="M48.85,47.76c-2.86,0-8-3-6.25-3.16.06,0,5.78,4.27,8.45,1.78C52.53,46.67,49.54,48,48.85,47.76Z"/><path class="cls-12" d="M56.66,100C51,101.14,37.33,92.44,35.82,90c-.25-.24.1-.7.37-.43,3.82,4.26,17.68,13.31,26.88,8.58C64.29,99.34,57.86,100,56.66,100Z"/><path class="cls-8" d="M39.39,21.77s-.25,4.06-1.7,5.42c0,0,2.49,2.78,5,2C42.66,29.21,41.3,22.79,39.39,21.77Z"/><path class="cls-8" d="M62.25,11.34A8.36,8.36,0,0,1,62,12.49a12.56,12.56,0,0,1-1.6,3.57L58.64,16C53.76,1.65,45.7,6.4,43.32,18L37.41,17C35.15,13,35.56-.56,45.5,1.6,49.84-2.33,63.35,1,62.25,11.34Z"/><path class="cls-2" d="M53.16,31.15v3.2c-4.36,4.36-13,.31-12.65,0V23.27Z"/><path class="cls-8" d="M53.16,31.15v2.72c-6.82-1.21-9.28-5.55-9.28-5.55C45.17,28.7,52.35,30.06,53.16,31.15Z"/><path class="cls-4" d="M57.16,17.16c3.85-4.15,4.66,7,.31,5.77Z"/><path class="cls-2" d="M59.09,24.67C58.55,36,43,29.86,40.51,25.63c0-.75-.43-7.64-.47-8.59.37-3.34-2.73-9.47,5.51-12C62,2.36,58.35,13.85,59.09,24.67Z"/><path class="cls-8" d="M59.67,16l-2.11-.21c.69-7.46-4.24-10.91-12.66-7.7,2,4.37-3.74,4.94-.22,11-4.42.52-4.56-1.32-5.29-4.1-4-10,8-14.22,16.8-10.86C59.74,5.21,60,14.83,59.67,16Z"/><path class="cls-8" d="M46.23,12.58h0c.79,1.82,5.13.48,4.66-1.49C50.89,11.09,47.69,10.8,46.23,12.58Z"/><path class="cls-8" d="M58.64,12.58h0c-.79,1.82-5.13.48-4.66-1.49h0S57.18,10.8,58.64,12.58Z"/><path class="cls-4" d="M49.92,18.63c.07,1.12-4.49,1.12-4.42,0S50,17.5,49.92,18.63Z"/><path class="cls-4" d="M58.93,19.47c-3.44.34-3.58-2,0-1.69Z"/><path class="cls-8" d="M49.92,16c0,1.55-1.35,1.55-1.34,0S49.93,14.43,49.92,16Z"/><path class="cls-8" d="M56.55,16c0,1.55-1.35,1.55-1.33,0S56.57,14.43,56.55,16Z"/><path class="cls-8" d="M54.12,22.51c-2.55-.05-5.54-2.55-4-2.47.13.14,3.19,3.33,6.17,1.2C57.71,21.6,54.56,22.72,54.12,22.51Z"/><path class="cls-8" d="M42.66,23a6,6,0,0,1-2.15,2.68h0l-.08-1.38A4.75,4.75,0,0,0,42.66,23Z"/><path class="cls-2" d="M41.46,18.38c-6.41-7.07-6.59,8.07,0,5.47Z"/><path class="cls-8" d="M41.09,22.78a.29.29,0,0,1-.27-.24c-.38-3.21-2.76-3.24-2.78-4S42.11,20.36,41.09,22.78Z"/><path class="cls-8" d="M38.56,21.13c-.89-.38.78-1.3,1.73-1.13a.27.27,0,0,1-.14.53C39.55,20.38,39,21,38.56,21.13Z"/><path class="cls-8" d="M53,19.3a.27.27,0,0,1,0-.54A1.85,1.85,0,0,0,54.64,18c-3.33-6.31-2.24-6.52.55-.1C55.26,18.27,54.77,19.19,53,19.3Z"/><path class="cls-2" d="M71.69,106.86l-.49-2.32c2.66.41,4,9.92,4.75,11.81.44,1.62,2,4.78,1.47,6-2.57,3.71-9.82,2.08-2.89-2a22,22,0,0,0-3.33.71c-6.61.65,2.33-5.21,2.53-5L69,117.41c-1.85.56-2-1.85.86-3.2s2.58-1.75,2.58-1.75c.15-.3-8,2.63-6-.38.94-1.18,5.74-2.86,5.74-2.86Z"/><path class="cls-2" d="M36.12,125.56c-1.46,1.45-5.82-.86-7.8-.37,1.75,0,9.08,5.11,2.34,3.72-1.26-.4-2.1-1.59-3.4-1.38,1.12.74,3.75,2.93,2.68,4.58-1.24.16-3.31-2.08-4.48-2.11-3.92-.42-11.37-1.56-12.13-7.39,3-2.54,9.16-10,13.54-5.8,0,.31,0,2.24,0,2.56,5.14-1.33,14,4.11,2.38,2.86C30.47,122.32,35.47,123.68,36.12,125.56Z"/><path class="cls-2" d="M32.53,52.87C25.31,66.15,16.66,79.49,12.92,94.19c.87,8,5.38,15.41,9,22.55,2.19,2.86,3,7.22-.69,9.26-3.49,2-6.76-.61-8.34-3.69C7.41,113.34.4,104,0,93,2.51,76.12,11.29,61,18.43,45.75,23,36.55,37.27,43.8,32.53,52.87Z"/><path class="cls-8" d="M21.46,115.92s-4.44,4.46-8.93,5.77a3.36,3.36,0,0,1-1.39-2.11,25,25,0,0,0,9.1-6A3.49,3.49,0,0,1,21.46,115.92Z"/><path class="cls-8" d="M15.21,115.4c-3.51,2.21,0,7.67,3.49,5.35S18.65,113.08,15.21,115.4Z"/><path class="cls-7" d="M15,119.33c1.6,2.52,5.52,0,3.85-2.52S13.36,116.86,15,119.33Z"/><path class="cls-4" d="M13,95.29a.77.77,0,0,0,0,.15c-2-.66-5.44-.69-7.34-.73.87-1.72,5.34-.21,7.27,0C12.94,94.89,13,95.09,13,95.29Z"/><path class="cls-4" d="M13,95.29c-.66-1.08-3.56-2.52-3.58-2.42-1-1.51,2.06-.08,3.52,1.32A6.82,6.82,0,0,0,13,95.29Z"/><path class="cls-3" d="M35,46.5a8.38,8.38,0,0,0-14-4.67c-3.63,3.38-11,17.34-10.41,15.71l15.83,9.23C26.41,66.71,36.05,52.22,35,46.5Z"/><path class="cls-12" d="M28.77,63a136.3,136.3,0,0,1-8.53,14.07v-1C21.79,74.91,28.56,61,28.77,63Z"/><path class="cls-12" d="M26.32,67.1c.19-.15,4.07-1.45,3.74-1.94-.09-.59-3.61,1.43-3.84,1.4A.28.28,0,0,0,26.32,67.1Z"/></g></g></svg>