<svg xmlns="http://www.w3.org/2000/svg" xmlns:xlink="http://www.w3.org/1999/xlink" viewBox="0 0 171.25 447.28"><defs><style>.cls-1{fill:#e5cfc7;}.cls-2{fill:#ff8c64;}.cls-3{fill:#ed6224;}.cls-4{fill:#ee2a23;}.cls-5{fill:#fff;}.cls-6{fill:#35252f;}.cls-7{fill:#634e5d;}.cls-8{fill:#f79c00;}.cls-9{fill:#5942ff;}.cls-10{fill:#3935b1;}.cls-11{fill:#ea6a4f;}.cls-12{fill:url(#Degradado_sin_nombre_8);}</style><linearGradient id="Degradado_sin_nombre_8" x1="68.65" y1="34.21" x2="67.32" y2="18.73" gradientUnits="userSpaceOnUse"><stop offset="0" stop-color="#ff8c64"/><stop offset="1" stop-color="#ea6a4f"/></linearGradient></defs><g id="Слой_2" data-name="Слой 2"><g id="OBJECTS"><ellipse class="cls-1" cx="85.63" cy="438.23" rx="85.63" ry="9.05"/><polygon class="cls-2" points="53.13 404.06 54.56 415.4 69.01 415.4 69.85 403.47 53.13 404.06"/><polygon class="cls-2" points="91.78 402.22 93.53 415.4 107.99 415.4 107.43 401.83 91.78 402.22"/><path class="cls-3" d="M143.67,438.23H89a7.59,7.59,0,0,1-.72-3c-.34-4.62,1.13-12,1.85-16.66.09-.54.17-1,.23-1.51a16,16,0,0,0,.16-1.9c0-3.8,3.36-3.15,3.36-3.15,5.53,5.43,11.8-2.71,15.46,0,0,0,1.57,1.13,5.91,5s11.73,6.48,18,9.11c8.12,3.39,10.42,6.78,10.87,9.11A4.31,4.31,0,0,1,143.67,438.23Z"/><path class="cls-4" d="M143.67,438.23H89a7.59,7.59,0,0,1-.72-3h55.85A4.31,4.31,0,0,1,143.67,438.23Z"/><path class="cls-5" d="M110.14,414.25s1-2.38,3.15-1.62,1.95,4.34,1.95,4.34S113.94,420.22,110.14,414.25Z"/><path class="cls-5" d="M109.47,425a.9.9,0,0,1-.9-.9,11.51,11.51,0,0,1,3.54-8.49.91.91,0,0,1,1.27.1.89.89,0,0,1-.1,1.27,9.72,9.72,0,0,0-2.9,7.12A.9.9,0,0,1,109.47,425Z"/><path class="cls-5" d="M120.84,417.92a.91.91,0,0,1-.6-.22c-1.14-1-4.5-1.21-6.35-1.09a.9.9,0,1,1-.12-1.8c.57,0,5.59-.3,7.67,1.54a.9.9,0,0,1,.07,1.27A.89.89,0,0,1,120.84,417.92Z"/><path class="cls-5" d="M111,417.4a32.63,32.63,0,0,1-4.36-.33c-2.86-.39-5-1.71-5.62-3.44a2.79,2.79,0,0,1,.65-2.92,3.84,3.84,0,0,1,2.83-1.21h.07c3.78,0,8.35,4.42,8.86,4.93l-.92.94h.05l.38,1.91A10.38,10.38,0,0,1,111,417.4Zm-6.42-5.95h0a1.91,1.91,0,0,0-1.44.6.84.84,0,0,0-.23.93c.3.83,1.66,1.82,4,2.15a28.1,28.1,0,0,0,4.75.31C110.1,414.05,106.81,411.45,104.53,411.45Z"/><path class="cls-5" d="M114.39,416.41l-.84-1.76c1.8-.85,3.52-3.1,3.41-4.45,0-.32-.17-.73-1-1a1,1,0,0,0-1.06.12c-.95.73-1.24,3.19-1.21,4.57l-2,.06c0-.47-.06-4.61,2-6.18A3.38,3.38,0,0,1,118.9,410C119.1,412.44,116.68,415.33,114.39,416.41Z"/><path class="cls-4" d="M94.57,438.23H92.94a12,12,0,0,0,2.94-8.76,15.39,15.39,0,0,0-5.76-10.94c.09-.54.17-1,.23-1.51a16.79,16.79,0,0,1,6.83,12.39A13.28,13.28,0,0,1,94.57,438.23Z"/><path class="cls-5" d="M114.32,420.19a.9.9,0,0,1-.22-1.77l3.42-.85a.9.9,0,0,1,.43,1.75l-3.42.85Z"/><path class="cls-5" d="M117.73,422.18a.9.9,0,0,1-.21-1.78l3.41-.85a.9.9,0,0,1,.44,1.75l-3.42.85A.83.83,0,0,1,117.73,422.18Z"/><path class="cls-5" d="M121.15,424.09a.92.92,0,0,1-.88-.69.9.9,0,0,1,.66-1.09l3.42-.85a.9.9,0,0,1,.43,1.75l-3.41.85Z"/><path class="cls-5" d="M124.87,425.85a.9.9,0,0,1-.21-1.77l3.41-.85a.9.9,0,0,1,.44,1.75l-3.42.85Z"/><path class="cls-5" d="M128.91,427.36a.9.9,0,0,1-.21-1.78l3.41-.85a.9.9,0,0,1,.44,1.75l-3.42.85A.83.83,0,0,1,128.91,427.36Z"/><path class="cls-6" d="M30.66,209.22c.15.57.3,1.13.47,1.68V211c.23.74.48,1.44.76,2.12,2.45,6,21.38,6.88,40,4.79,14.46-1.61,28.73-5,35-9.2,5.89-3.93-6.65-40.19-6.65-40.19l-70.7,14.84S28,198.39,30.66,209.22Z"/><path class="cls-6" d="M116.21,311.53l-6,91.24-20.82.63s-7.18-68.89-4.51-85.71l-11.59-100L73,215.37l26.73-12.32,1.67-.77,6.81-3.13c0,.55.11,1.1.17,1.64.22,2.05.43,4.1.64,6.13.07.61.13,1.22.19,1.83,4,38.65,6.72,74.16,7,100.37,0,.62,0,1.23,0,1.83Z"/><path class="cls-7" d="M116.21,311a25.65,25.65,0,0,1-6,.65,35,35,0,0,1-6.28-.56.89.89,0,0,1-.7-1.05.9.9,0,0,1,1.05-.7c.09,0,6.54,1.26,11.9-.17C116.2,309.74,116.21,310.35,116.21,311Z"/><path class="cls-7" d="M92.67,400.53h.1a.87.87,0,0,0,.76-1c-7.41-60.17-2.61-84.9-2.56-85.15a.66.66,0,0,0,0-.28L78.49,218.78a.87.87,0,0,0-1-.75.88.88,0,0,0-.75,1l12.48,95.21c-.4,2.15-4.59,27.46,2.56,85.55A.86.86,0,0,0,92.67,400.53Z"/><path class="cls-7" d="M92.2,187.47c.08.45,1.79,9.31,7.51,15.58a20.09,20.09,0,0,0,4,3.4,16.54,16.54,0,0,0,3.69,1.79,14.32,14.32,0,0,0,1.81.51c-.06-.61-.12-1.22-.19-1.83l-.87-.25a15.42,15.42,0,0,1-3.5-1.68,17.34,17.34,0,0,1-3.25-2.7c-5.71-6-7.46-15-7.48-15.14a.86.86,0,1,0-1.7.32Z"/><path class="cls-7" d="M79.77,214.11a.71.71,0,0,1-.68.73h0a.69.69,0,0,1-.75-.66c-.13-2.61-.29-5.29-.45-8l-.09-1.41c-.57-8.74-1.3-17.32-1.84-23.38,0-.49-.09-1-.13-1.42-.12-1.33-.23-2.51-.32-3.51l1.43-.23c.09,1,.2,2.19.32,3.53,0,.46.09.94.13,1.43.54,6,1.26,14.5,1.83,23.19l.09,1.44C79.48,208.63,79.64,211.41,79.77,214.11Z"/><path class="cls-7" d="M81.83,204.89a18.87,18.87,0,0,1-2.53,1c-.45.13-.93.26-1.42.36a13.19,13.19,0,0,1-1.37.18,5.09,5.09,0,0,1-2.43-.39,2.92,2.92,0,0,1-1.64-2.2c-.53-2.7-1.63-13.83-2.37-21.7,0-.49-.1-1-.14-1.42-.12-1.26-.22-2.4-.31-3.38l1.44-.17c.09,1,.19,2.13.31,3.41,0,.46.09.93.14,1.42.74,7.85,1.84,19,2.35,21.58a1.54,1.54,0,0,0,.87,1.22,5.23,5.23,0,0,0,3.06,0c.48-.11,1-.25,1.42-.39a16.33,16.33,0,0,0,2-.78.74.74,0,0,1,1,.31A.69.69,0,0,1,81.83,204.89Z"/><path class="cls-6" d="M71.91,206.38V401L71.7,404H50.24c-1.14-6.94-9.2-35-10.33-58.41-1.2-25.19-.86-57.82-.86-57.82C36.71,270,33.12,232.44,31.13,211v-.07c-.06-.56-.11-1.12-.16-1.67-.8-8.62-1.3-14.24-1.3-14.24,3.33-1.38,9.26-.52,15.64,1.23l1.7.49A196.6,196.6,0,0,1,71.91,206.38Z"/><path class="cls-7" d="M71.91,305.08v1.83a24.54,24.54,0,0,1-5.16.51A38.54,38.54,0,0,1,56.88,306a.89.89,0,0,1,.51-1.71C57.48,304.36,65.34,306.64,71.91,305.08Z"/><path class="cls-7" d="M52.59,403.09h.16a.88.88,0,0,0,.69-1c-.06-.31-5.93-30.75-8.48-48s-1.28-65.56-1.27-66v-.13c-1.91-16.17-5.8-72-5.84-72.58a.86.86,0,0,0-.92-.81.87.87,0,0,0-.81.93c0,.56,3.93,56.31,5.84,72.6-.06,2-1.23,49.23,1.29,66.28,2.55,17.29,8.43,47.77,8.49,48.08A.87.87,0,0,0,52.59,403.09Z"/><path class="cls-3" d="M75.05,434.72c0,.13,0,.26,0,.38,0,.58,0,1.1-.06,1.55-.06,1-.13,1.58-.13,1.58H42.28a18.19,18.19,0,0,1,0-3.13c.22-3.32,1.32-8.58,5.82-12.05,6.16-4.76,3.78-3.77,5-5.94.15-.24,1.25-3.93,1.37-4.18,1.06-2.26,2-3.32,7.87-3.32,7.74,0,8.42,3.75,9.25,5.73a37.18,37.18,0,0,1,1.29,4.6c.19.82.39,1.7.58,2.6.47,2.24.92,4.58,1.22,6.45A33.62,33.62,0,0,1,75.05,434.72Z"/><path class="cls-4" d="M75.05,434.72c0,.13,0,.26,0,.38,0,.58,0,1.1-.06,1.55a9.1,9.1,0,0,1-3.38-4.39c-2-5.49,1.08-12.07,1.21-12.35l.07,0c.19.82.39,1.7.58,2.6-.74,2.24-1.58,6-.41,9.19A7.62,7.62,0,0,0,75.05,434.72Z"/><path class="cls-4" d="M75,435.1c0,1.86-.19,3.13-.19,3.13H42.28a18.19,18.19,0,0,1,0-3.13Z"/><path class="cls-5" d="M58.92,414.37a.91.91,0,0,1-.39-.08c-.82-.37-8.08-3.75-8.65-7.27a3,3,0,0,1,1-2.72,2.75,2.75,0,0,1,2.65-.74c3.28.87,5.77,8.15,6.24,9.6a.93.93,0,0,1-.88,1.21Zm-6.05-9a1,1,0,0,0-.7.34,1.07,1.07,0,0,0-.45,1.05c.24,1.5,3,3.46,5.52,4.84-1.15-2.83-2.81-5.85-4.16-6.2A.66.66,0,0,0,52.87,405.33Z"/><path class="cls-5" d="M60.5,414.37a.93.93,0,0,1-.89-1.21c.47-1.45,3-8.73,6.25-9.6a2.74,2.74,0,0,1,2.64.74,3,3,0,0,1,1,2.72c-.57,3.52-7.83,6.9-8.65,7.27A.84.84,0,0,1,60.5,414.37Zm6-9a.66.66,0,0,0-.21,0c-1.34.35-3,3.37-4.16,6.2,2.52-1.39,5.29-3.35,5.53-4.84a1.1,1.1,0,0,0-.46-1.05A1,1,0,0,0,66.54,405.33Z"/><path class="cls-5" d="M59.68,411.66S58.16,410.94,58,413c-.09,1.69,1.11,2.05,1.6,1.77a1.41,1.41,0,0,0,1.55-.52C61.7,413.45,61.36,410.83,59.68,411.66Z"/><path class="cls-5" d="M53,417.34a1,1,0,0,1-.56-.18.93.93,0,0,1-.19-1.3,7.93,7.93,0,0,1,7.64-3,.93.93,0,0,1-.37,1.82A6.06,6.06,0,0,0,53.76,417,.93.93,0,0,1,53,417.34Z"/><path class="cls-5" d="M67.25,418.28a.92.92,0,0,1-.85-.55c-1.5-3.3-6.76-4.11-6.81-4.11a.94.94,0,0,1-.79-1.06.93.93,0,0,1,1.06-.78c.25,0,6.31,1,8.23,5.19a.93.93,0,0,1-.46,1.23A1,1,0,0,1,67.25,418.28Z"/><path class="cls-5" d="M63.41,419.76l-.23,0a16.1,16.1,0,0,0-7.55-.15.94.94,0,0,1-1.14-.65.92.92,0,0,1,.65-1.14,17.76,17.76,0,0,1,8.51.14.93.93,0,0,1-.24,1.83Z"/><path class="cls-5" d="M62,422.7l-.23,0a16.28,16.28,0,0,0-7.55-.15.93.93,0,0,1-1.14-.65.92.92,0,0,1,.64-1.14,17.71,17.71,0,0,1,8.51.15A.92.92,0,0,1,62,422.7Z"/><path class="cls-5" d="M60.39,426.05a1,1,0,0,1-.24,0,16.22,16.22,0,0,0-7.55-.16.93.93,0,1,1-.49-1.79,18,18,0,0,1,8.51.15.93.93,0,0,1,.66,1.13A.92.92,0,0,1,60.39,426.05Z"/><path class="cls-7" d="M30.66,209.22c.15.57.3,1.13.47,1.68V211h0a14.19,14.19,0,0,0,8.37-2.79c3.8-2.81,6.1-7.28,7.5-11.47a44.78,44.78,0,0,0,2.08-10.59.86.86,0,0,0-.82-.91.85.85,0,0,0-.91.82,44.66,44.66,0,0,1-2,10.19c-1.3,3.92-3.42,8-6.84,10.57a12.45,12.45,0,0,1-7.5,2.44Z"/><path class="cls-8" d="M41.55,231.6a11,11,0,0,0,5-1.6c12-7.05,7.38-38.09,7.18-39.4a1,1,0,0,0-2,.3c.05.31,4.58,31-6.22,37.37a7.74,7.74,0,0,1-8.18.3c-3.21-1.9-5.19-6.17-5-10.85a1,1,0,0,0-1-1,1,1,0,0,0-1,1c-.17,5.41,2.19,10.37,6,12.65A9.07,9.07,0,0,0,41.55,231.6Z"/><path class="cls-9" d="M106.45,182.39c-14.93,13.94-50.24,21.35-77.46,8.1-3-8.16-6.27-37.28-7.15-46-.17-1.74-.31-3.47-.43-5.2a229.24,229.24,0,0,1,0-25.56c0-.48.05-1,.07-1.44.36-7.24.89-14.74,1.39-22.71,1-15.78,6.26-25.5,15.41-26.95a41.12,41.12,0,0,0,4.75-1l.79-.23c.81-.26,1.57-.52,2.28-.8s1.59-.64,2.28-1l.32-.15c.19-.09.37-.18.54-.28a28.07,28.07,0,0,0,4.63-2.86h20.4a15.08,15.08,0,0,0,5.34,4.79c.33.19.67.36,1,.52l.8.37.84.34c.67.26,1.34.49,2,.71h0c6.45,2.06,13,2.58,14.55,10.18,1.09,5.48-3.11,16.76-2.67,39.63,0,1.68.09,3.42.18,5.22s.19,3.44.32,5.25.28,3.41.45,5.19c.16,1.56.33,3.17.53,4.81s.43,3.41.69,5.18C99.67,148,103.32,170.17,106.45,182.39Z"/><path class="cls-5" d="M66.45,76.11c-12.45,0-15.65-17.29-15.78-18a.75.75,0,0,1,1.48-.27c0,.17,3.11,16.79,14.3,16.79A8,8,0,0,0,72.73,72c3.92-4.43,2.92-13,2.91-13.11a.75.75,0,1,1,1.48-.18c0,.38,1.1,9.35-3.27,14.28A9.42,9.42,0,0,1,66.45,76.11Z"/><path class="cls-10" d="M73.42,97,90.17,96s4.41,22-6,22.87C72,119.89,73.42,97,73.42,97Z"/><path class="cls-10" d="M68,88.13a25.62,25.62,0,0,1-11-2.78,46.75,46.75,0,0,1-11.54-8.1.49.49,0,0,1,0-.67.42.42,0,0,1,.63,0,45.72,45.72,0,0,0,11.31,7.93C66,88.62,73.4,88,79.42,82.73a.44.44,0,0,1,.63.07.52.52,0,0,1-.07.68,17.75,17.75,0,0,1-11.85,4.65Z"/><path class="cls-10" d="M67.73,79.65c-4.81,0-10.4-4.13-10.71-4.36a.51.51,0,0,1-.11-.67.42.42,0,0,1,.61-.13c.1.07,9.44,7,13.79,2.91a.42.42,0,0,1,.62,0,.52.52,0,0,1,0,.68A5.89,5.89,0,0,1,67.73,79.65Z"/><path class="cls-10" d="M80.46,164.83a32.87,32.87,0,0,1-5.52-.48A46.27,46.27,0,0,1,60.6,159,69.16,69.16,0,0,1,46.46,148.5a.53.53,0,0,1,0-.68.43.43,0,0,1,.63,0,68,68,0,0,0,14,10.38c7.55,4.2,18.87,8.24,29.9,3.63a.43.43,0,0,1,.57.27.51.51,0,0,1-.26.63A27.84,27.84,0,0,1,80.46,164.83Z"/><path class="cls-6" d="M52.29,37.25s-.41,6.64-2.78,8.85c0,0,4.06,4.54,8.12,3.29C57.63,49.39,55.41,38.93,52.29,37.25Z"/><path class="cls-6" d="M89.59,20.24a16.32,16.32,0,0,1-.38,1.87h0A20.66,20.66,0,0,1,86.6,28l-.53,0-.53,0-1.84-.09S78.47,12,70.49,13,58.7,31,58.7,31L49.06,29.5s-4.74-11.72.6-20.21c4.45-7.07,12.59-4.94,12.59-4.94S70.58-.88,78.76,3C84.06,5.54,90.75,11.64,89.59,20.24Z"/><path class="cls-2" d="M74.76,52.57v5.2a15.13,15.13,0,0,1-1.84,1.3c-9.05,5.43-18.81-1.3-18.81-1.3V39.71L72.3,51Z"/><path class="cls-6" d="M74.76,52.57V57c-11.14-2-15.15-9.05-15.15-9.05L72.3,51Z"/><path class="cls-11" d="M81.27,29.73s3-3.49,4.63,0,.39,10.57-4.11,9.42Z"/><path class="cls-2" d="M84.43,42s0,10.77-11.19,10.75S54.52,44,54.12,43.57h0L54,41.29l-.63-11.74L53,23.27S51.59,12,62.34,9.9c7.85-1.51,15.22-.21,18.93,3.89.12.13.24.27.35.41a9.64,9.64,0,0,1,2.11,5.26l.35,11.28.08,2.77Z"/><path class="cls-6" d="M85.38,27.89l-3.45-.34s.73-8.31-3.81-12.57c-2.92-2.73-9-2-13.05-1.05l-.64.15c-1,.25-1.84.49-2.4.66l-.55.17-.21.07S63.43,19.5,60,22.89c-2.88,2.88.89,10,.89,10H55.81c-2.57-1.29-3.52-6.69-3.52-6.69S49.63,18.88,53,13c1.81-3.21,7.45-5.3,13.37-6l1-.1C72,6.5,76.67,7,79.69,8.48c2.4,1.2,3.83,3.79,4.67,6.7a24.49,24.49,0,0,1,.56,2.43A43.46,43.46,0,0,1,85.38,27.89Z"/><path class="cls-6" d="M63.44,22.27h0a2.53,2.53,0,0,0,3.31,1.28,14,14,0,0,1,2.54-.83,2.34,2.34,0,0,0,1.76-2.89h0S65.83,19.35,63.44,22.27Z"/><path class="cls-6" d="M83.7,22.27h0a2.53,2.53,0,0,1-3.31,1.28,13.76,13.76,0,0,0-2.54-.83,2.34,2.34,0,0,1-1.76-2.89h0S81.31,19.35,83.7,22.27Z"/><ellipse class="cls-11" cx="65.86" cy="32.13" rx="3.61" ry="1.42"/><path class="cls-11" d="M84.16,33.51c-.27,0-.57,0-.87,0-2,0-3.6-.64-3.6-1.42s1.61-1.42,3.6-1.42c.27,0,.54,0,.79,0Z"/><path class="cls-6" d="M69.27,27.81c0,1.08-.49,2-1.1,2s-1.09-.87-1.09-2,.49-1.95,1.09-1.95S69.27,26.73,69.27,27.81Z"/><path class="cls-6" d="M80.09,27.81c0,1.08-.49,2-1.09,2s-1.09-.87-1.09-2,.48-1.95,1.09-1.95S80.09,26.73,80.09,27.81Z"/><path class="cls-6" d="M76.31,38.46c-3.93,0-7.16-3.38-7.2-3.42a.45.45,0,0,1,.65-.61c.21.22,5.2,5.44,10.07,2a.45.45,0,0,1,.62.1.45.45,0,0,1-.1.62A6.86,6.86,0,0,1,76.31,38.46Z"/><path class="cls-6" d="M57.63,39.2c-.05.12-1.47,3.41-3.51,4.37h0L54,41.29A7.72,7.72,0,0,0,57.63,39.2Z"/><path class="cls-2" d="M55.66,31.72s-4.31-5.79-7.46-1.24C45.6,34.23,50.51,44,55.66,40.64Z"/><path class="cls-6" d="M55.07,38.9a.44.44,0,0,1-.44-.39,7.41,7.41,0,0,0-4.3-6,.44.44,0,1,1,.32-.82,8.28,8.28,0,0,1,4.86,6.69.45.45,0,0,1-.39.49Z"/><path class="cls-6" d="M50.93,36.21a.43.43,0,0,1-.34-.16.43.43,0,0,1,.06-.62c.18-.15,1.77-1.4,3.1-1.06a.44.44,0,1,1-.22.86c-.77-.19-1.93.57-2.32.89A.47.47,0,0,1,50.93,36.21Z"/><path class="cls-6" d="M74.53,33.23a.44.44,0,1,1,0-.88,3,3,0,0,0,2.64-1.24c-1.77-3.64-3.52-7.31-3.54-7.35a.44.44,0,0,1,.8-.38s1.84,3.85,3.64,7.56a.42.42,0,0,1,0,.38A3.76,3.76,0,0,1,74.53,33.23Z"/><path class="cls-2" d="M101.26,113.85A8.44,8.44,0,0,0,91,107.78c-3.12.81-6,1.69-8.89,2.62s-5.66,1.87-8.44,2.83l-6.61,2.29-2.22.78c-2.55.89-5.08,1.76-7.61,2.61-5.42,1.84-10.82,3.58-16.13,5-2.65.73-5.28,1.39-7.84,1.91a53.32,53.32,0,0,1-7.23,1c-.52,0-1,0-1.5,0v-.1l.1-.9c.14-1.2.32-2.42.55-3.65.45-2.47,1-5,1.73-7.53s1.51-5.08,2.38-7.63,1.85-5.1,2.86-7.64c.51-1.27,1-2.53,1.58-3.79s1.08-2.53,1.65-3.78,1.13-2.5,1.71-3.73L38,86.37l.44-.9.4-.8.16-.33a10.43,10.43,0,0,0-18.46-9.7l-.63,1.12-.56,1c-.38.7-.74,1.38-1.09,2.08Q17.18,81,16.18,83c-.65,1.39-1.3,2.79-1.93,4.2S13,90.06,12.44,91.49q-1.78,4.29-3.29,8.72T6.4,109.29c-.8,3.1-1.5,6.26-2,9.54-.25,1.64-.47,3.31-.62,5l-.1,1.28-.09,1.3-.05,1.3,0,.67v.76A20.43,20.43,0,0,0,4,133.62a17.18,17.18,0,0,0,2,5.12,16.17,16.17,0,0,0,3.88,4.41,16.62,16.62,0,0,0,2.24,1.51,17.47,17.47,0,0,0,2.2,1.05,21.18,21.18,0,0,0,4,1.16,27.08,27.08,0,0,0,3.46.42,37.91,37.91,0,0,0,5.91-.13c1.82-.17,3.54-.43,5.19-.74s3.26-.66,4.82-1c3.13-.77,6.12-1.65,9-2.58,4.9-1.57,9.63-3.31,14.28-5.1l1.76-.67.95-.37c5.52-2.18,10.94-4.41,16.29-6.62,2.68-1.09,5.34-2.18,8-3.22s5.23-2,7.7-2.86l.12,0A8.42,8.42,0,0,0,101.26,113.85Z"/><path class="cls-2" d="M116.76,121.48c-.84-5.59-2.23-12-3.71-18-2.93-11.94-6.23-22.57-6.44-23.23a10.43,10.43,0,0,0-13.06-6.86,10.16,10.16,0,0,0-2.62,1.23c.08,1.72.26,3.75.59,6.17,1,7.52.54,18.32.21,23.53.27,1,.53,2.07.8,3.12,1,4,1.94,8.1,2.69,12-1.41,0-3.29,0-5.77-.16C83.83,118.86,77.11,118,70,117c-14.64-2-29.78-4-41-2.24a10.44,10.44,0,0,0,1.62,20.75,10.16,10.16,0,0,0,1.64-.13c8.19-1.3,22.39.62,34.93,2.31,10.34,1.39,19.31,2.6,26.75,2.6,8.19,0,14.52-1.47,18.75-5.77A14.94,14.94,0,0,0,116.76,121.48Z"/><path class="cls-9" d="M35.06,65.54s-10.49-1.24-16.45,6.6S4.81,99,4.81,99,24.73,111.18,36,110.71c0,0,8.4-20.27,9.72-28.37C47.94,68.84,35.06,65.54,35.06,65.54Z"/><path class="cls-2" d="M30.9,104.4l-2.64,5.22s-2.54-.85-5.89-1.88c-1.36,2.77-3.1,5.43-4.41,8-1.47,2.87-2.89,5.77-4.31,8.66,5.93,2.77,13,5.6,15.91,6.09,5.24.86,7.64-13.68,7.64-13.68S34.84,106.21,30.9,104.4Z"/><path class="cls-9" d="M118.79,101.19s-2.29,1-5.74,2.27c-5.42,1.94-13.7,4.35-20.52,4l-1-.08s.09-1.15.21-3c.33-5.21.81-16-.21-23.53-.33-2.42-.51-4.45-.59-6.17-.34-7.93,1.55-9,1.55-9a15.66,15.66,0,0,1,14,7.18C112,80.91,118.79,101.19,118.79,101.19Z"/><path class="cls-11" d="M62.77,137,61,137.7c-15.85-3.21-36.6-6.11-36.84-6.14a.51.51,0,0,1-.43-.58.5.5,0,0,1,.57-.43C24.56,130.58,46.72,133.68,62.77,137Z"/><path class="cls-11" d="M99.38,119.46a.5.5,0,0,1-.5.46h0c-11.35-1.09-26.93-2.82-34-3.61l2.22-.78c7.73.87,21.55,2.39,31.87,3.38A.51.51,0,0,1,99.38,119.46Z"/><path class="cls-11" d="M94.6,118.86a.53.53,0,0,1-.24-.06.51.51,0,0,1-.21-.69,16,16,0,0,1,2.92-3.53.51.51,0,0,1,.69.75,15.31,15.31,0,0,0-2.71,3.26A.51.51,0,0,1,94.6,118.86Z"/><path class="cls-6" d="M51.28,37.35s-.42,6.95-2.9,9.27c0,0,4.25,4.75,8.5,3.44C56.88,50.06,54.56,39.11,51.28,37.35Z"/><path class="cls-6" d="M90.33,19.54a14.15,14.15,0,0,1-.39,2h0a21.5,21.5,0,0,1-2.73,6.1l-.55,0-.56,0-1.93-.09S78.69,10.88,70.34,12,58,30.84,58,30.84l-10.09-1.6s-5-12.27.63-21.16C53.19.67,61.72,2.9,61.72,2.9S70.43-2.57,79,1.51C84.55,4.15,91.55,10.54,90.33,19.54Z"/><path class="cls-2" d="M54.11,57.77V38.86l19,11.86,2.58,1.6L69.5,55.53"/><path class="cls-6" d="M74.81,58C63.15,56,59,48.54,59,48.54l13.29,3.24,2.57,1.61V58"/><path class="cls-11" d="M81.63,29.48s3.1-3.66,4.85,0,.4,11.07-4.31,9.86Z"/><path class="cls-2" d="M84.93,42.32s0,11.27-11.71,11.25-19.6-9.18-20-9.6h0l-.12-2.37-.67-12.3-.35-6.58s-1.49-11.84,9.76-14C70,7.14,77.74,8.5,81.63,12.79c.12.14.25.28.36.42a10.1,10.1,0,0,1,2.21,5.52l.37,11.81.09,2.89Z"/><path class="cls-5" d="M78.33,38.8a3.13,3.13,0,1,1-6.16,0,3.13,3.13,0,1,1,6.16,0Z"/><path class="cls-6" d="M85.93,27.55l-3.61-.35s.76-8.71-4-13.16c-3.06-2.86-9.47-2-13.66-1.1L64,13.1c-1.06.25-1.93.5-2.51.68l-.58.18-.22.08s2.26,4.72-1.3,8.28c-3,3,.93,10.46.93,10.46H55c-2.69-1.36-3.69-7-3.69-7s-2.77-7.65.7-13.84c1.89-3.36,7.8-5.55,14-6.26l1.1-.11c4.85-.41,9.74.1,12.9,1.67,2.52,1.25,4,4,4.89,7,.24.83.43,1.69.59,2.55A45.66,45.66,0,0,1,85.93,27.55Z"/><path class="cls-6" d="M62.54,22.47h0a2.65,2.65,0,0,0,3.71,0,14.17,14.17,0,0,1,2.16-1.79,2.43,2.43,0,0,0,.6-3.48h0S63.75,18.72,62.54,22.47Z"/><path class="cls-6" d="M84.27,22.62h0a2.65,2.65,0,0,1-3.72-.15,15.48,15.48,0,0,0-2.09-1.86,2.43,2.43,0,0,1-.48-3.5h0S83.19,18.82,84.27,22.62Z"/><path class="cls-11" d="M69.27,32c0,.82-1.69,1.48-3.78,1.48s-3.77-.66-3.77-1.48,1.69-1.49,3.77-1.49S69.27,31.17,69.27,32Z"/><path class="cls-11" d="M84.66,33.43a8.92,8.92,0,0,1-.91,0C81.66,33.48,80,32.81,80,32s1.69-1.49,3.78-1.49a7.38,7.38,0,0,1,.82,0Z"/><path class="cls-6" d="M69.06,27.47c0,1.13-.51,2-1.14,2s-1.14-.91-1.14-2,.51-2,1.14-2S69.06,26.34,69.06,27.47Z"/><path class="cls-6" d="M80.39,27.47c0,1.13-.51,2-1.14,2s-1.14-.91-1.14-2,.51-2,1.14-2S80.39,26.34,80.39,27.47Z"/><path class="cls-6" d="M56.88,39.39c-.06.13-1.54,3.57-3.67,4.58h0l-.12-2.37A8.13,8.13,0,0,0,56.88,39.39Z"/><path class="cls-2" d="M54.81,31.56S50.3,25.5,47,30.26c-2.72,3.92,2.43,14.14,7.81,10.64Z"/><path class="cls-6" d="M54.2,39.08a.46.46,0,0,1-.46-.41,7.74,7.74,0,0,0-4.51-6.25.46.46,0,1,1,.35-.86,8.68,8.68,0,0,1,5.08,7,.47.47,0,0,1-.41.51Z"/><path class="cls-6" d="M49.87,36.27a.46.46,0,0,1-.36-.17.48.48,0,0,1,.06-.66c.19-.15,1.85-1.46,3.25-1.1a.46.46,0,0,1-.23.9c-.81-.21-2,.6-2.43.92A.48.48,0,0,1,49.87,36.27Z"/><path class="cls-6" d="M74.57,33.15a.47.47,0,1,1,0-.93,3.21,3.21,0,0,0,2.77-1.29c-1.85-3.82-3.69-7.66-3.71-7.7a.47.47,0,0,1,.84-.4s1.92,4,3.81,7.92a.45.45,0,0,1,0,.39A3.94,3.94,0,0,1,74.57,33.15Z"/><path class="cls-6" d="M51,37.76S50.6,44.7,48.13,47c0,0,4.24,4.75,8.49,3.45C56.62,50.47,54.3,39.51,51,37.76Z"/><path class="cls-6" d="M90.08,20a18.85,18.85,0,0,1-.39,2h0A22.26,22.26,0,0,1,87,28l-.56,0-.55,0-1.93-.09S78.44,11.29,70.08,12.4,57.74,31.24,57.74,31.24l-10.09-1.6s-5-12.27.63-21.16c4.66-7.4,13.18-5.17,13.18-5.17s8.72-5.48,17.29-1.39C84.29,4.56,91.29,10.94,90.08,20Z"/><path class="cls-2" d="M54.11,57.77V38.86l19,11.86,2.58,1.6-3.56,5.11"/><path class="cls-6" d="M74.56,58.42c-11.67-2.06-15.87-9.48-15.87-9.48L72,52.18l2.58,1.61v4.63"/><path class="cls-11" d="M81.37,29.89s3.1-3.66,4.85,0,.4,11.06-4.31,9.85Z"/><path class="cls-12" d="M84.68,42.72S84.69,54,73,54s-19.6-9.18-20-9.6h0L52.81,42l-.66-12.3-.36-6.58s-1.49-11.83,9.76-14c8.22-1.58,15.93-.22,19.82,4.07a4.82,4.82,0,0,1,.36.43A10.08,10.08,0,0,1,84,19.13l.36,11.81.09,2.89Z"/><path class="cls-6" d="M80.36,41.17a.51.51,0,0,1-.47-.33s-1.32-3.7-4.58-4c-4-.31-6.29,3.66-6.32,3.7a.5.5,0,0,1-.68.19.5.5,0,0,1-.19-.68c.1-.19,2.6-4.56,7.27-4.2,3.92.3,5.39,4.44,5.45,4.62a.51.51,0,0,1-.31.64A.5.5,0,0,1,80.36,41.17Z"/><path class="cls-6" d="M85.67,28l-3.61-.35s.77-8.7-4-13.16c-3.06-2.86-9.46-2-13.66-1.1l-.67.16c-1.05.26-1.92.51-2.51.68l-.58.19-.21.07s2.26,4.73-1.3,8.28c-3,3,.93,10.46.93,10.46H54.72c-2.69-1.36-3.69-7-3.69-7s-2.78-7.66.7-13.84c1.88-3.36,7.79-5.56,14-6.26L66.81,6c4.85-.41,9.74.09,12.91,1.67,2.51,1.25,4,4,4.88,7a21.77,21.77,0,0,1,.59,2.54A45.66,45.66,0,0,1,85.67,28Z"/><path class="cls-6" d="M63.53,19.06h0A2.66,2.66,0,0,0,65,22.47a14.31,14.31,0,0,1,2.49,1.27A2.43,2.43,0,0,0,71,22.91h0S67.46,18.69,63.53,19.06Z"/><path class="cls-6" d="M83.23,19.26h0a2.64,2.64,0,0,1-1.69,3.31A14.67,14.67,0,0,0,79,23.69a2.44,2.44,0,0,1-3.39-1h0S79.34,18.65,83.23,19.26Z"/><ellipse class="cls-11" cx="65.24" cy="32.39" rx="3.78" ry="1.49"/><path class="cls-11" d="M84.4,33.83a8.92,8.92,0,0,1-.91.05c-2.08,0-3.77-.67-3.77-1.49s1.69-1.49,3.77-1.49c.28,0,.56,0,.82,0Z"/><path class="cls-6" d="M68.8,27.87c0,1.13-.51,2-1.14,2s-1.14-.91-1.14-2,.51-2,1.14-2S68.8,26.75,68.8,27.87Z"/><path class="cls-6" d="M80.13,27.87c0,1.13-.51,2-1.14,2s-1.14-.91-1.14-2,.51-2,1.14-2S80.13,26.75,80.13,27.87Z"/><path class="cls-6" d="M56.62,39.79c0,.13-1.54,3.57-3.67,4.58h0L52.81,42A8.13,8.13,0,0,0,56.62,39.79Z"/><path class="cls-2" d="M54.56,32s-4.51-6.05-7.82-1.29C44,34.59,49.17,44.81,54.56,41.31Z"/><path class="cls-6" d="M53.94,39.48a.46.46,0,0,1-.46-.41A7.77,7.77,0,0,0,49,32.82a.45.45,0,0,1-.26-.6.46.46,0,0,1,.6-.26,8.68,8.68,0,0,1,5.08,7,.46.46,0,0,1-.41.51Z"/><path class="cls-6" d="M49.61,36.67a.48.48,0,0,1-.36-.17.46.46,0,0,1,.07-.65c.18-.15,1.85-1.46,3.24-1.11a.46.46,0,0,1-.23.9c-.8-.2-2,.6-2.43.93A.45.45,0,0,1,49.61,36.67Z"/><path class="cls-6" d="M74.31,33.55a.47.47,0,0,1,0-.93,3.19,3.19,0,0,0,2.77-1.29c-1.85-3.81-3.69-7.66-3.71-7.7a.47.47,0,0,1,.84-.4s1.93,4,3.81,7.92a.5.5,0,0,1,0,.4A4,4,0,0,1,74.31,33.55Z"/></g></g></svg>