<svg width="60" height="60" viewBox="0 0 60 60" fill="none" xmlns="http://www.w3.org/2000/svg">
<g clip-path="url(#clip0_2_10)">
<path d="M51.1815 51.1681C56.8392 45.5475 60.0109 37.9345 60 30.0012C59.994 29.5116 59.7933 29.0439 59.4412 28.6998C59.0892 28.3555 58.6144 28.1627 58.1196 28.1627C57.6246 28.1627 57.1498 28.3555 56.7978 28.6998C56.4458 29.0439 56.245 29.5116 56.239 30.0012C56.247 36.9535 53.466 43.6251 48.5073 48.5499C46.1001 50.9957 43.2224 52.9397 40.0434 54.267C36.8649 55.5942 33.4497 56.278 29.9997 56.278C26.5497 56.278 23.1345 55.5942 19.9558 54.267C16.7772 52.9397 13.8994 50.9957 11.4921 48.5499C6.54003 43.6202 3.76044 36.9515 3.76044 30.0001C3.76044 23.0487 6.54003 16.3799 11.4921 11.4502C13.8853 9.02318 16.7416 7.09049 19.8953 5.76414C23.049 4.43781 26.4373 3.74421 29.8639 3.72357C30.5955 3.74625 31.2892 4.05093 31.7971 4.5726C32.305 5.09424 32.5869 5.79165 32.5826 6.51604C32.5785 7.24045 32.2884 7.93454 31.7743 8.45034C31.2604 8.96611 30.5631 9.26276 29.8313 9.27702C29.7635 9.27715 29.6957 9.28088 29.6285 9.28815C24.4152 9.4543 19.4688 11.6085 15.8232 15.3003C11.9734 19.1357 9.81265 24.3223 9.81265 29.7285C9.81265 35.1348 11.9734 40.3214 15.8232 44.1569C17.7041 46.0635 19.9512 47.5786 22.4325 48.613C24.9137 49.6476 27.5792 50.1804 30.2714 50.1804C32.9637 50.1804 35.6292 49.6476 38.1105 48.613C40.5915 47.5786 42.8386 46.0635 44.7195 44.1569C48.5754 40.3254 50.737 35.1362 50.7292 29.7285C50.7372 28.877 50.5746 28.0317 50.2507 27.2425C49.9266 26.4535 49.4481 25.7357 48.8421 25.1306C48.2363 24.5254 47.5154 24.0451 46.7208 23.7174C45.9264 23.3897 45.0744 23.2208 44.2136 23.2208C43.3527 23.2208 42.5005 23.3897 41.7062 23.7174C40.9118 24.0451 40.1908 24.5254 39.5849 25.1306C38.979 25.7357 38.5003 26.4535 38.1763 27.2425C37.8525 28.0317 37.6898 28.877 37.6977 29.7285C37.6977 29.7829 37.7013 29.834 37.7057 29.886C37.7013 29.9382 37.6977 29.9904 37.6977 30.0437C37.71 31.5285 37.2762 32.9837 36.4513 34.2244C35.6266 35.4651 34.4481 36.4352 33.0653 37.0119C31.6824 37.5885 30.1575 37.7457 28.6845 37.4636C27.211 37.1811 25.8558 36.4724 24.7903 35.4266C23.7249 34.3806 22.9974 33.0453 22.7001 31.5897C22.403 30.1339 22.5492 28.6238 23.1207 27.2507C23.6921 25.8774 24.6627 24.7032 25.9095 23.8769C27.1565 23.0505 28.6233 22.6092 30.1238 22.6092C30.3726 22.6122 30.6196 22.5663 30.8503 22.4741C31.0812 22.3818 31.2912 22.2453 31.4682 22.0722C31.6452 21.8991 31.7859 21.6929 31.8817 21.4656C31.9777 21.2383 32.0271 20.9946 32.0271 20.7483C32.0271 20.502 31.9777 20.2581 31.8817 20.0308C31.7859 19.8036 31.6452 19.5974 31.4682 19.4242C31.2912 19.2512 31.0812 19.1146 30.8503 19.0224C30.6196 18.9303 30.3726 18.8843 30.1238 18.8873C27.8969 18.8995 25.7234 19.5642 23.8778 20.7975C22.032 22.0308 20.5968 23.7775 19.7532 25.8172C18.9096 27.8568 18.6952 30.0983 19.1373 32.2583C19.5793 34.4184 20.6579 36.4004 22.2371 37.9547C23.8161 39.5085 25.8249 40.5649 28.0103 40.9905C30.1952 41.4157 32.4588 41.1912 34.515 40.3451C36.5712 39.4987 38.3283 38.069 39.5643 36.2355C40.8003 34.4021 41.4597 32.2475 41.4597 30.0437C41.4597 29.9892 41.4561 29.9382 41.4518 29.886C41.4561 29.834 41.4597 29.7817 41.4597 29.7285C41.4523 29.3659 41.5182 29.0056 41.6535 28.6683C41.7885 28.3312 41.9904 28.0242 42.2467 27.7653C42.5034 27.5063 42.8096 27.3005 43.1474 27.1601C43.4851 27.0197 43.8483 26.9472 44.2146 26.9472C44.5809 26.9472 44.944 27.0197 45.2819 27.1601C45.6197 27.3005 45.9259 27.5063 46.1824 27.7653C46.4388 28.0242 46.6407 28.3312 46.7757 28.6683C46.911 29.0056 46.9768 29.3659 46.9695 29.7285C46.9744 34.1558 45.2035 38.4038 42.0459 41.5396C40.5149 43.0964 38.6842 44.3334 36.6621 45.1782C34.6398 46.0231 32.467 46.4581 30.2719 46.4581C28.0771 46.4581 25.9044 46.0231 23.8821 45.1782C21.86 44.3334 20.0294 43.0964 18.4983 41.5396C15.3449 38.4011 13.5747 34.1547 13.5747 29.7285C13.5747 25.3025 15.3449 21.0561 18.4983 17.9175C20.0306 16.3627 21.8613 15.1269 23.8829 14.2822C25.9046 13.4376 28.0764 13.0013 30.2709 12.999C30.4396 12.9985 30.6075 12.9755 30.7703 12.9305C32.3712 12.6876 33.8249 11.8682 34.8528 10.6296C35.8808 9.39105 36.4104 7.82051 36.3402 6.21927C36.2699 4.61801 35.6045 3.0988 34.472 1.95312C33.3395 0.807405 31.8193 0.115857 30.2034 0.0111347C30.1359 0.00385785 30.0678 0.000140975 29.9997 0C29.9619 0 29.9242 0 29.8864 0C29.8677 0 29.8495 0 29.8315 0C29.8134 0 29.7948 0.00217112 29.7767 0.00271427C25.8672 0.0331404 22.0026 0.829092 18.4056 2.34468C14.8085 3.86025 11.5502 6.06551 8.81847 8.83326C3.17012 14.4597 0 22.0689 0 30.0001C0 37.9312 3.17012 45.5403 8.81847 51.1668C11.5755 53.9626 14.8698 56.1846 18.5075 57.7014C22.1453 59.2184 26.0527 60 30.0003 60C33.9478 60 37.8552 59.2184 41.4931 57.7014C45.131 56.1846 48.4249 53.9626 51.1821 51.1668L51.1815 51.1681Z" fill="#2F2CC6" fill-opacity="0.8"/>
</g>
<defs>
<clipPath id="clip0_2_10">
<rect width="60" height="60" fill="white"/>
</clipPath>
</defs>
</svg>
